<svg xmlns="http://www.w3.org/2000/svg" width="1920" height="860.959" viewBox="0 0 1920 860.959">
  <g id="Group_1860" data-name="Group 1860" transform="translate(0 -217.869)">
    <g id="Group_1512" data-name="Group 1512" transform="translate(553 195.11)">
      <path id="Path_6462" data-name="Path 6462" d="M386.711,666.066V44.78L325.6,56.4l-5.891,697.664,67.006-88Z" transform="translate(112.482 24.604)" fill="#96c1c1" fill-rule="evenodd"/>
      <path id="Path_6463" data-name="Path 6463" d="M318.919,788.179h67.893V595.132l-67.006,88-.888,105.051Z" transform="translate(112.38 95.538)" fill="#7da8aa" fill-rule="evenodd"/>
      <path id="Path_6464" data-name="Path 6464" d="M348.3,852.272V106.763l4.319-8.916V852.272Z" transform="translate(116.168 31.443)" fill="#75999a" fill-rule="evenodd"/>
      <path id="Path_6465" data-name="Path 6465" d="M-107.114,797.184h-42.116V525.262l26.56,80.034-1.883,44.152-6.3,147.734h23.738Z" transform="translate(52.041 86.532)" fill="#4f696d" fill-rule="evenodd"/>
      <path id="Path_6466" data-name="Path 6466" d="M55.345,813.283H38.628l-16.9-368.775,33.619-44.148V813.283Z" transform="translate(74.076 70.434)" fill="#4f696d" fill-rule="evenodd"/>
      <path id="Path_6467" data-name="Path 6467" d="M-74.164,790.875h-58.785l6.3-147.737,52.487-68.928V790.875Z" transform="translate(54.14 92.841)" fill="#7da8aa" fill-rule="evenodd"/>
      <path id="Path_6468" data-name="Path 6468" d="M-80.876,808.242H51.852l-16.9-368.775L-80.876,591.577V808.242Z" transform="translate(60.851 75.474)" fill="#648489" fill-rule="evenodd"/>
      <path id="Path_6469" data-name="Path 6469" d="M23.438,476.813,8.446,149.711l48.611,11.115V432.665L23.438,476.813Z" transform="translate(72.364 38.128)" fill="#5c7b7f" fill-rule="evenodd"/>
      <path id="Path_6470" data-name="Path 6470" d="M-127.37,697.852l22.895-537.026,29.593-11.115V628.922l-52.488,68.93Z" transform="translate(54.859 38.128)" fill="#96c1c1" fill-rule="evenodd"/>
      <path id="Path_6471" data-name="Path 6471" d="M34.95,476.813l-14.992-327.1H-80.875V628.92L34.95,476.813Z" transform="translate(60.852 38.128)" fill="#75999a" fill-rule="evenodd"/>
      <path id="Path_6472" data-name="Path 6472" d="M-80.875,263.865H23.872l-.1,1.862H-80.875v-1.862Z" transform="translate(60.852 52.841)" fill="#51686a" fill-rule="evenodd"/>
      <path id="Path_6473" data-name="Path 6473" d="M-80.875,277.23H23.052l-.1,1.863H-80.875V277.23Z" transform="translate(60.852 54.564)" fill="#51686a" fill-rule="evenodd"/>
      <path id="Path_6474" data-name="Path 6474" d="M-80.875,290.6H22.232l-.1,1.863h-103V290.6Z" transform="translate(60.852 56.286)" fill="#51686a" fill-rule="evenodd"/>
      <path id="Path_6475" data-name="Path 6475" d="M-80.875,303.961H21.412l-.1,1.862H-80.875v-1.862Z" transform="translate(60.852 58.009)" fill="#51686a" fill-rule="evenodd"/>
      <path id="Path_6476" data-name="Path 6476" d="M-80.875,317.326H20.592l-.1,1.862H-80.875v-1.862Z" transform="translate(60.852 59.732)" fill="#51686a" fill-rule="evenodd"/>
      <path id="Path_6477" data-name="Path 6477" d="M-80.875,330.693H19.771l-.1,1.861H-80.875v-1.861Z" transform="translate(60.852 61.454)" fill="#51686a" fill-rule="evenodd"/>
      <path id="Path_6478" data-name="Path 6478" d="M-80.875,344.059H18.951l-.1,1.861H-80.875v-1.861Z" transform="translate(60.852 63.177)" fill="#51686a" fill-rule="evenodd"/>
      <path id="Path_6479" data-name="Path 6479" d="M-80.875,156.942H20.333l.085,1.862H-80.875v-1.862Z" transform="translate(60.852 39.06)" fill="#51686a" fill-rule="evenodd"/>
      <path id="Path_6480" data-name="Path 6480" d="M-80.875,170.307h101.9l.086,1.861H-80.875v-1.861Z" transform="translate(60.852 40.783)" fill="#51686a" fill-rule="evenodd"/>
      <path id="Path_6481" data-name="Path 6481" d="M-80.875,183.672H21.716l.085,1.861H-80.875v-1.861Z" transform="translate(60.852 42.505)" fill="#51686a" fill-rule="evenodd"/>
      <path id="Path_6482" data-name="Path 6482" d="M-80.875,197.038H22.408l.085,1.861H-80.875v-1.861Z" transform="translate(60.852 44.228)" fill="#51686a" fill-rule="evenodd"/>
      <path id="Path_6483" data-name="Path 6483" d="M-80.875,210.4H23.1l.085,1.862H-80.875V210.4Z" transform="translate(60.852 45.95)" fill="#51686a" fill-rule="evenodd"/>
      <path id="Path_6484" data-name="Path 6484" d="M-80.875,223.768H23.791l.085,1.862H-80.875v-1.862Z" transform="translate(60.852 47.673)" fill="#51686a" fill-rule="evenodd"/>
      <path id="Path_6485" data-name="Path 6485" d="M-80.875,237.134H24.482L24.568,239H-80.875v-1.863Z" transform="translate(60.852 49.396)" fill="#51686a" fill-rule="evenodd"/>
      <path id="Path_6486" data-name="Path 6486" d="M-80.875,250.5H24.691l-.1,1.863H-80.875V250.5Z" transform="translate(60.852 51.118)" fill="#51686a" fill-rule="evenodd"/>
      <path id="Path_6487" data-name="Path 6487" d="M-80.875,464.347H11.571l-.1,1.861H-80.875v-1.861Z" transform="translate(60.852 78.681)" fill="#51686a" fill-rule="evenodd"/>
      <path id="Path_6488" data-name="Path 6488" d="M-80.875,477.712H2.074L.657,479.574H-80.875v-1.862Z" transform="translate(60.852 80.404)" fill="#51686a" fill-rule="evenodd"/>
      <path id="Path_6489" data-name="Path 6489" d="M-80.875,491.078h71.46l-1.418,1.861H-80.875v-1.861Z" transform="translate(60.852 82.126)" fill="#51686a" fill-rule="evenodd"/>
      <path id="Path_6490" data-name="Path 6490" d="M-80.875,504.442H-20.9l-1.419,1.863H-80.875v-1.863Z" transform="translate(60.852 83.849)" fill="#51686a" fill-rule="evenodd"/>
      <path id="Path_6491" data-name="Path 6491" d="M-80.875,517.807h48.483l-1.418,1.863H-80.875v-1.863Z" transform="translate(60.852 85.571)" fill="#51686a" fill-rule="evenodd"/>
      <path id="Path_6492" data-name="Path 6492" d="M-80.875,531.174h36.992l-1.419,1.862H-80.875v-1.862Z" transform="translate(60.852 87.294)" fill="#51686a" fill-rule="evenodd"/>
      <path id="Path_6493" data-name="Path 6493" d="M-80.875,544.539h25.5l-1.417,1.863H-80.875v-1.863Z" transform="translate(60.852 89.017)" fill="#51686a" fill-rule="evenodd"/>
      <path id="Path_6494" data-name="Path 6494" d="M-80.875,357.423H18.131l-.1,1.863H-80.875v-1.863Z" transform="translate(60.852 64.9)" fill="#51686a" fill-rule="evenodd"/>
      <path id="Path_6495" data-name="Path 6495" d="M-80.875,370.788H17.311l-.1,1.862H-80.875v-1.862Z" transform="translate(60.852 66.622)" fill="#51686a" fill-rule="evenodd"/>
      <path id="Path_6496" data-name="Path 6496" d="M-80.875,384.154H16.492l-.1,1.862H-80.875v-1.862Z" transform="translate(60.852 68.345)" fill="#51686a" fill-rule="evenodd"/>
      <path id="Path_6497" data-name="Path 6497" d="M-80.875,397.519H15.671l-.1,1.863H-80.875v-1.863Z" transform="translate(60.852 70.068)" fill="#51686a" fill-rule="evenodd"/>
      <path id="Path_6498" data-name="Path 6498" d="M-80.875,410.884H14.852l-.1,1.863H-80.875v-1.863Z" transform="translate(60.852 71.79)" fill="#51686a" fill-rule="evenodd"/>
      <path id="Path_6499" data-name="Path 6499" d="M-80.875,424.249H14.032l-.1,1.862h-94.8v-1.862Z" transform="translate(60.852 73.513)" fill="#51686a" fill-rule="evenodd"/>
      <path id="Path_6500" data-name="Path 6500" d="M-80.875,437.616H13.211l-.1,1.861H-80.875v-1.861Z" transform="translate(60.852 75.236)" fill="#51686a" fill-rule="evenodd"/>
      <path id="Path_6501" data-name="Path 6501" d="M-80.875,450.982H12.391l-.1,1.861H-80.875v-1.861Z" transform="translate(60.852 76.958)" fill="#51686a" fill-rule="evenodd"/>
      <path id="Path_6502" data-name="Path 6502" d="M-80.875,557.9H-66.86l-1.418,1.861h-12.6V557.9Z" transform="translate(60.852 90.739)" fill="#51686a" fill-rule="evenodd"/>
      <path id="Path_6503" data-name="Path 6503" d="M-80.875,571.27h2.525l-1.417,1.861h-1.108V571.27Z" transform="translate(60.852 92.462)" fill="#51686a" fill-rule="evenodd"/>
      <path id="Path_6504" data-name="Path 6504" d="M51.507,678.772l71.547-93.959c1.659-23.945,3.793-48.662,6.532-74.371q.3-2.85.61-5.714l-9.265-169.4L51.507,327.8v350.97Z" transform="translate(77.914 61.082)" fill="#8ab7b4" fill-rule="evenodd"/>
      <path id="Path_6505" data-name="Path 6505" d="M51.507,793.291h65.708c0-17.5,0-34.994.059-52.594.212-58.964,1.2-119.159,5.78-185.227L51.507,649.429V793.291Z" transform="translate(77.914 90.426)" fill="#415659" fill-rule="evenodd"/>
      <path id="Path_6506" data-name="Path 6506" d="M788.41,819.193H769.624L752.059,585.52,715.71,475.989H674.561V360.481L788.41,354.5V819.193Z" transform="translate(158.219 64.523)" fill="#8ab7b4" fill-rule="evenodd"/>
      <path id="Path_6507" data-name="Path 6507" d="M775.413,819.193H834.5V360.481L775.413,354.5V819.193Z" transform="translate(171.217 64.523)" fill="#77a29f" fill-rule="evenodd"/>
      <path id="Path_6508" data-name="Path 6508" d="M721.054,805.323H664.99c-2.206-123.633-13.325-235.307-31.893-343.2h87.957v343.2Z" transform="translate(152.874 78.394)" fill="#75999a" fill-rule="evenodd"/>
      <path id="Path_6509" data-name="Path 6509" d="M541,159.447,538.661,56.365,379.061,44.78V666.065l45.884-60.257,3.839-190.924,5.465-271.825,35.563,2.58L541,159.447Z" transform="translate(120.132 24.604)" fill="#75999a" fill-rule="evenodd"/>
      <path id="Path_6510" data-name="Path 6510" d="M379.061,795.058h40.792l5.092-253.305-45.884,60.258V795.058Z" transform="translate(120.132 88.658)" fill="#648489" fill-rule="evenodd"/>
      <path id="Path_6511" data-name="Path 6511" d="M463.511,134.417l111.073,21.547L551.5,180.857l-88.473-27.041-35.077-21.979,35.563,2.579Z" transform="translate(126.433 35.824)" fill="#defcfa" fill-rule="evenodd"/>
      <path id="Path_6512" data-name="Path 6512" d="M602.95,845.137h74.378c-4.6-257.926-48-463.811-116.85-691.928L537.391,178.1c46.8,270.106,71.838,452.487,65.559,667.034Z" transform="translate(140.539 38.579)" fill="#4f696d" fill-rule="evenodd"/>
      <path id="Path_6513" data-name="Path 6513" d="M415.2,845.384H618.7c6.28-214.549-18.759-396.93-65.559-667.035l-88.473-27.041L415.2,845.384Z" transform="translate(124.789 38.334)" fill="#75999a" fill-rule="evenodd"/>
      <path id="Path_6514" data-name="Path 6514" d="M415.2,847.893l49.472-694.076-35.077-21.979L415.2,847.893Z" transform="translate(124.789 35.824)" fill="#b9e0dd" fill-rule="evenodd"/>
      <path id="Path_6515" data-name="Path 6515" d="M247.34,294.971l-9.868-107.907,57.976,33.363.419,10.816L247.34,294.971Z" transform="translate(101.883 42.942)" fill="#5c7b7f" fill-rule="evenodd"/>
      <path id="Path_6516" data-name="Path 6516" d="M120.663,528.591c.667-6.275,1.56-14.157,2.3-20.554L264.841,321.717l1.431,15.653L120.663,528.591Zm6.8-56.422C138,393.807,154.346,305.929,179.68,203.252l72.847-16.188L262.4,294.971l-134.933,177.2Z" transform="translate(86.827 42.942)" fill="#96c1c1" fill-rule="evenodd"/>
      <path id="Path_6517" data-name="Path 6517" d="M-181.4,814.509h-93.1V396.3l93.1-5.451V814.509Z" transform="translate(35.896 69.207)" fill="#8ab7b4" fill-rule="evenodd"/>
      <path id="Path_6518" data-name="Path 6518" d="M-192.029,814.509h48.315V396.3l-48.315-5.451V814.509Z" transform="translate(46.525 69.207)" fill="#77a29f" fill-rule="evenodd"/>
      <path id="Path_6519" data-name="Path 6519" d="M595.27,429.979c-3.408-26.094-7.172-52.777-11.276-80.248L433.273,547.106,425.753,652.6,595.27,429.979Z" transform="translate(126.15 63.908)" fill="#648489" fill-rule="evenodd"/>
      <path id="Path_6520" data-name="Path 6520" d="M415.2,803.824H618.7c3.311-113.1-2.085-217.276-14.783-330.068L421.661,713.1,415.2,803.824Z" transform="translate(124.789 79.894)" fill="#5c7b7f" fill-rule="evenodd"/>
      <path id="Path_6521" data-name="Path 6521" d="M415.2,820.619l34.011-477.167-25.081,32.938L415.2,820.619Z" transform="translate(124.789 63.099)" fill="#96c1c1" fill-rule="evenodd"/>
      <path id="Path_6522" data-name="Path 6522" d="M122.7,495.716q2.054-17.614,4.505-35.875L262.133,282.65l2.445,26.747L122.7,495.716Z" transform="translate(87.09 55.262)" fill="#7fa8aa" fill-rule="evenodd"/>
      <path id="Path_6523" data-name="Path 6523" d="M109.765,771.017c.292-80.333,2.027-162.955,12.312-259.595l145.6-191.213L287.55,537.543,109.765,771.017Z" transform="translate(85.423 60.103)" fill="#75999a" fill-rule="evenodd"/>
      <path id="Path_6524" data-name="Path 6524" d="M313.717,798.8h-204c0-17.5,0-35,.059-52.595L287.558,512.729,313.717,798.8Z" transform="translate(85.416 84.917)" fill="#648489" fill-rule="evenodd"/>
      <path id="Path_6525" data-name="Path 6525" d="M269.965,549.66,246.214,289.927,294.741,226.2l10.745,276.813L269.965,549.66Z" transform="translate(103.009 47.986)" fill="#4f696d" fill-rule="evenodd"/>
      <path id="Path_6526" data-name="Path 6526" d="M293.412,804.127,267.253,518.055l35.521-46.648,12.915,332.719Z" transform="translate(105.721 79.591)" fill="#415659" fill-rule="evenodd"/>
      <path id="Path_6527" data-name="Path 6527" d="M621.293,377.832q-7.962-36.4-17-72.734l-38.368,50.386c4.1,27.472,7.868,54.154,11.276,80.25l44.09-57.9Z" transform="translate(144.217 58.156)" fill="#415659" fill-rule="evenodd"/>
      <path id="Path_6528" data-name="Path 6528" d="M597.153,811.033h74.378c-2.548-142.829-17-269.7-41.076-393.223l-48.086,63.149c12.7,112.8,18.095,216.968,14.784,330.075Z" transform="translate(146.336 72.683)" fill="#405359" fill-rule="evenodd"/>
      <path id="Path_6529" data-name="Path 6529" d="M711.012,805.323h53.914L747.361,571.65,711.012,462.118v343.2Z" transform="translate(162.917 78.394)" fill="#4f696d" fill-rule="evenodd"/>
      <path id="Path_6530" data-name="Path 6530" d="M-264.881,796.431h-84.231V531.11h84.231v265.32Z" transform="translate(26.279 87.286)" fill="#9fc8c5" fill-rule="evenodd"/>
      <path id="Path_6531" data-name="Path 6531" d="M801.581,819.193V354.966l2.833-.464V819.193Z" transform="translate(174.59 64.523)" fill="#51686a" fill-rule="evenodd"/>
      <path id="Path_6532" data-name="Path 6532" d="M794.6,817.26v-447.3l2.833-.465V817.26Z" transform="translate(173.69 66.456)" fill="#51686a" fill-rule="evenodd"/>
      <path id="Path_6533" data-name="Path 6533" d="M808.29,819.193V354.966l2.832-.464V819.193Z" transform="translate(175.455 64.523)" fill="#51686a" fill-rule="evenodd"/>
      <path id="Path_6534" data-name="Path 6534" d="M13.678,263.865h42.7v1.862H13.764l-.085-1.862Z" transform="translate(73.038 52.841)" fill="#51686a" fill-rule="evenodd"/>
      <path id="Path_6535" data-name="Path 6535" d="M14.291,277.23H56.3v1.863H14.376l-.085-1.863Z" transform="translate(73.117 54.564)" fill="#51686a" fill-rule="evenodd"/>
      <path id="Path_6536" data-name="Path 6536" d="M14.9,290.6H56.225v1.863H14.989L14.9,290.6Z" transform="translate(73.196 56.286)" fill="#51686a" fill-rule="evenodd"/>
      <path id="Path_6537" data-name="Path 6537" d="M15.516,303.961h40.63v1.862H15.6l-.085-1.862Z" transform="translate(73.275 58.009)" fill="#51686a" fill-rule="evenodd"/>
      <path id="Path_6538" data-name="Path 6538" d="M16.129,317.326H56.067v1.862H16.214l-.085-1.862Z" transform="translate(73.354 59.732)" fill="#51686a" fill-rule="evenodd"/>
      <path id="Path_6539" data-name="Path 6539" d="M16.741,330.693H55.988v1.861H16.827l-.085-1.861Z" transform="translate(73.433 61.454)" fill="#51686a" fill-rule="evenodd"/>
      <path id="Path_6540" data-name="Path 6540" d="M17.354,344.059H55.909v1.861H17.439l-.085-1.861Z" transform="translate(73.512 63.177)" fill="#51686a" fill-rule="evenodd"/>
      <path id="Path_6541" data-name="Path 6541" d="M9.39,170.307l47.545,5.019v1.322l-47.459-4.48-.086-1.861Z" transform="translate(72.486 40.783)" fill="#51686a" fill-rule="evenodd"/>
      <path id="Path_6542" data-name="Path 6542" d="M10,183.672l46.853,2.2v1.862l-46.768-2.2L10,183.672Z" transform="translate(72.565 42.505)" fill="#51686a" fill-rule="evenodd"/>
      <path id="Path_6543" data-name="Path 6543" d="M10.616,197.038l46.162.581v1.861L10.7,198.9l-.085-1.861Z" transform="translate(72.644 44.228)" fill="#51686a" fill-rule="evenodd"/>
      <path id="Path_6544" data-name="Path 6544" d="M11.228,210.4H56.7v1.862H11.313l-.085-1.862Z" transform="translate(72.723 45.95)" fill="#51686a" fill-rule="evenodd"/>
      <path id="Path_6545" data-name="Path 6545" d="M11.841,223.768H56.619v1.862H11.926l-.085-1.862Z" transform="translate(72.801 47.673)" fill="#51686a" fill-rule="evenodd"/>
      <path id="Path_6546" data-name="Path 6546" d="M12.453,237.134H56.541V239h-44l-.085-1.863Z" transform="translate(72.88 49.396)" fill="#51686a" fill-rule="evenodd"/>
      <path id="Path_6547" data-name="Path 6547" d="M13.066,250.5h43.4v1.863H13.151l-.085-1.863Z" transform="translate(72.959 51.118)" fill="#51686a" fill-rule="evenodd"/>
      <path id="Path_6548" data-name="Path 6548" d="M17.967,357.423H55.83v1.863H18.052l-.085-1.863Z" transform="translate(73.591 64.9)" fill="#51686a" fill-rule="evenodd"/>
      <path id="Path_6549" data-name="Path 6549" d="M18.579,370.788H55.751v1.862H18.665l-.086-1.862Z" transform="translate(73.67 66.622)" fill="#51686a" fill-rule="evenodd"/>
      <path id="Path_6550" data-name="Path 6550" d="M19.192,384.154h36.48v1.862H19.277l-.085-1.862Z" transform="translate(73.749 68.345)" fill="#51686a" fill-rule="evenodd"/>
      <path id="Path_6551" data-name="Path 6551" d="M19.8,397.519h35.79v1.863H19.89l-.086-1.863Z" transform="translate(73.828 70.068)" fill="#51686a" fill-rule="evenodd"/>
      <path id="Path_6552" data-name="Path 6552" d="M20.416,410.884h26.05l-1.417,1.863H20.5l-.086-1.863Z" transform="translate(73.907 71.79)" fill="#51686a" fill-rule="evenodd"/>
      <path id="Path_6553" data-name="Path 6553" d="M21.028,424.249H34.9l-1.419,1.862H21.115l-.086-1.862Z" transform="translate(73.986 73.513)" fill="#51686a" fill-rule="evenodd"/>
      <path id="Path_6554" data-name="Path 6554" d="M21.641,437.616h1.688l-1.417,1.861h-.185l-.086-1.861Z" transform="translate(74.065 75.236)" fill="#51686a" fill-rule="evenodd"/>
      <path id="Path_6555" data-name="Path 6555" d="M-108.128,290.6h30.776v1.862h-30.854l.078-1.862Z" transform="translate(57.329 56.286)" fill="#7ea2a4" fill-rule="evenodd"/>
      <path id="Path_6556" data-name="Path 6556" d="M-110.644,303.961h33.616v1.862h-33.7l.08-1.862Z" transform="translate(57.004 58.009)" fill="#7ea2a4" fill-rule="evenodd"/>
      <path id="Path_6557" data-name="Path 6557" d="M-113.806,317.326H-76.62v1.862h-37.266l.08-1.862Z" transform="translate(56.597 59.732)" fill="#7ea2a4" fill-rule="evenodd"/>
      <path id="Path_6558" data-name="Path 6558" d="M-114.376,330.693h37.83v1.861h-37.909l.08-1.861Z" transform="translate(56.523 61.454)" fill="#7ea2a4" fill-rule="evenodd"/>
      <path id="Path_6559" data-name="Path 6559" d="M-114.946,344.059h38.473v1.861h-38.552l.079-1.861Z" transform="translate(56.45 63.177)" fill="#7ea2a4" fill-rule="evenodd"/>
      <path id="Path_6560" data-name="Path 6560" d="M-108.188,185.759l30.844-2.086v1.861l-30.923,2.087.08-1.862Z" transform="translate(57.321 42.505)" fill="#7ea2a4" fill-rule="evenodd"/>
      <path id="Path_6561" data-name="Path 6561" d="M-108.725,198.28l31.45-1.242V198.9l-31.53,1.243.08-1.862Z" transform="translate(57.252 44.228)" fill="#7ea2a4" fill-rule="evenodd"/>
      <path id="Path_6562" data-name="Path 6562" d="M-109.274,211.063-77.2,210.4v1.864l-32.148.661.079-1.864Z" transform="translate(57.181 45.95)" fill="#7ea2a4" fill-rule="evenodd"/>
      <path id="Path_6563" data-name="Path 6563" d="M-109.817,223.768h32.683v1.862H-109.9l.08-1.862Z" transform="translate(57.111 47.673)" fill="#7ea2a4" fill-rule="evenodd"/>
      <path id="Path_6564" data-name="Path 6564" d="M-110.387,237.135h33.326V239h-33.406l.08-1.861Z" transform="translate(57.037 49.396)" fill="#7ea2a4" fill-rule="evenodd"/>
      <path id="Path_6565" data-name="Path 6565" d="M-110.958,250.5h33.971v1.861h-34.049l.078-1.861Z" transform="translate(56.964 51.118)" fill="#7ea2a4" fill-rule="evenodd"/>
      <path id="Path_6566" data-name="Path 6566" d="M-120.074,464.347h44.261v1.861h-44.34l.08-1.861Z" transform="translate(55.789 78.681)" fill="#b9e0dd" fill-rule="evenodd"/>
      <path id="Path_6567" data-name="Path 6567" d="M-120.644,477.712h44.9v1.862h-44.983l.078-1.862Z" transform="translate(55.716 80.404)" fill="#b9e0dd" fill-rule="evenodd"/>
      <path id="Path_6568" data-name="Path 6568" d="M-121.213,491.077h45.547v1.862h-45.627l.08-1.862Z" transform="translate(55.642 82.126)" fill="#b9e0dd" fill-rule="evenodd"/>
      <path id="Path_6569" data-name="Path 6569" d="M-121.783,504.443h46.19V506.3h-46.27l.08-1.861Z" transform="translate(55.569 83.849)" fill="#7ea2a4" fill-rule="evenodd"/>
      <path id="Path_6570" data-name="Path 6570" d="M-122.354,517.807h46.834v1.863h-46.914l.08-1.863Z" transform="translate(55.495 85.571)" fill="#7ea2a4" fill-rule="evenodd"/>
      <path id="Path_6571" data-name="Path 6571" d="M-122.923,531.174h47.477v1.861H-123l.08-1.861Z" transform="translate(55.422 87.294)" fill="#7ea2a4" fill-rule="evenodd"/>
      <path id="Path_6572" data-name="Path 6572" d="M-115.516,357.423H-76.4v1.863h-39.195l.078-1.863Z" transform="translate(56.377 64.9)" fill="#b9e0dd" fill-rule="evenodd"/>
      <path id="Path_6573" data-name="Path 6573" d="M-116.086,370.789h39.758v1.861h-39.838l.08-1.861Z" transform="translate(56.303 66.622)" fill="#b9e0dd" fill-rule="evenodd"/>
      <path id="Path_6574" data-name="Path 6574" d="M-116.655,384.154h40.4v1.862h-40.481l.08-1.862Z" transform="translate(56.23 68.345)" fill="#7ea2a4" fill-rule="evenodd"/>
      <path id="Path_6575" data-name="Path 6575" d="M-110.256,397.519h33.177v1.863h-33.256l.078-1.863Z" transform="translate(57.055 70.068)" fill="#7ea2a4" fill-rule="evenodd"/>
      <path id="Path_6576" data-name="Path 6576" d="M-104.018,410.885h26.136v1.862H-104.1l.079-1.862Z" transform="translate(57.858 71.79)" fill="#7ea2a4" fill-rule="evenodd"/>
      <path id="Path_6577" data-name="Path 6577" d="M-112.853,424.249h36.109v1.862h-36.189l.08-1.862Z" transform="translate(56.72 73.513)" fill="#7ea2a4" fill-rule="evenodd"/>
      <path id="Path_6578" data-name="Path 6578" d="M-118.935,437.616H-75.96v1.861h-43.053l.079-1.861Z" transform="translate(55.936 75.236)" fill="#7ea2a4" fill-rule="evenodd"/>
      <path id="Path_6579" data-name="Path 6579" d="M-119.5,450.981h43.618v1.864h-43.7l.08-1.864Z" transform="translate(55.862 76.958)" fill="#b9e0dd" fill-rule="evenodd"/>
      <path id="Path_6580" data-name="Path 6580" d="M-80.875,318.975h28.664l-.029,13.228H-80.875V318.975Z" transform="translate(60.852 59.944)" fill="#82a8aa" fill-rule="evenodd"/>
      <path id="Path_6581" data-name="Path 6581" d="M-27.626,345.707H1.428L1.4,358.936H-27.626V345.707Z" transform="translate(67.715 63.39)" fill="#91bcbe" fill-rule="evenodd"/>
      <path id="Path_6582" data-name="Path 6582" d="M-43.2,345.707h15.38l-.015,13.228H-43.2V345.707Z" transform="translate(65.708 63.39)" fill="#82a8aa" fill-rule="evenodd"/>
      <path id="Path_6583" data-name="Path 6583" d="M-43.2,318.975h15.38l-.015,13.228H-43.2V318.975Z" transform="translate(65.708 59.944)" fill="#91bcbe" fill-rule="evenodd"/>
      <path id="Path_6584" data-name="Path 6584" d="M-54.227,265.512h15.38l-.015,13.228H-54.227V265.512Z" transform="translate(64.286 53.053)" fill="#8ab2b4" fill-rule="evenodd"/>
      <path id="Path_6585" data-name="Path 6585" d="M-80.875,425.9h28.664l-.029,13.228H-80.875V425.9Z" transform="translate(60.852 73.725)" fill="#82a8aa" fill-rule="evenodd"/>
      <path id="Path_6586" data-name="Path 6586" d="M-80.875,587.864h0L10.21,468.249-80.875,587.864Z" transform="translate(60.852 79.184)" fill="#415659" fill-rule="evenodd"/>
      <path id="Path_6587" data-name="Path 6587" d="M-7.234,477.712H1.442l-.1,1.862H-8.652l1.418-1.862Z" transform="translate(70.16 80.404)" fill="#415659" fill-rule="evenodd"/>
      <path id="Path_6588" data-name="Path 6588" d="M-17.411,491.078H1.934l-.1,1.861H-18.829l1.418-1.861Z" transform="translate(68.848 82.126)" fill="#415659" fill-rule="evenodd"/>
      <path id="Path_6589" data-name="Path 6589" d="M-27.588,504.442H2.426l-.1,1.863h-31.33l1.419-1.863Z" transform="translate(67.537 83.849)" fill="#415659" fill-rule="evenodd"/>
      <path id="Path_6590" data-name="Path 6590" d="M-37.765,517.807H2.918l-.1,1.863h-42l1.418-1.863Z" transform="translate(66.225 85.571)" fill="#415659" fill-rule="evenodd"/>
      <path id="Path_6591" data-name="Path 6591" d="M-47.944,531.174H3.41l-.1,1.862H-49.363l1.419-1.862Z" transform="translate(64.913 87.294)" fill="#415659" fill-rule="evenodd"/>
      <path id="Path_6592" data-name="Path 6592" d="M-58.121,544.539H3.9L3.8,546.4H-59.539l1.418-1.863Z" transform="translate(63.601 89.017)" fill="#415659" fill-rule="evenodd"/>
      <path id="Path_6593" data-name="Path 6593" d="M-80.875,664.828H-.73l-.1,1.863H-80.875v-1.863Z" transform="translate(60.852 104.521)" fill="#415659" fill-rule="evenodd"/>
      <path id="Path_6594" data-name="Path 6594" d="M-80.876,678.193H-1.55l-.1,1.863H-80.876v-1.863Z" transform="translate(60.851 106.243)" fill="#415659" fill-rule="evenodd"/>
      <path id="Path_6595" data-name="Path 6595" d="M-80.876,691.559H-2.369l-.1,1.862H-80.876v-1.862Z" transform="translate(60.851 107.966)" fill="#415659" fill-rule="evenodd"/>
      <path id="Path_6596" data-name="Path 6596" d="M-68.3,557.9H4.392l-.1,1.861H-69.716L-68.3,557.9Z" transform="translate(62.29 90.739)" fill="#415659" fill-rule="evenodd"/>
      <path id="Path_6597" data-name="Path 6597" d="M-78.476,571.27H4.884l-.1,1.861H-79.893l1.417-1.861Z" transform="translate(60.978 92.462)" fill="#415659" fill-rule="evenodd"/>
      <path id="Path_6598" data-name="Path 6598" d="M-80.875,584.636H4.191l-.1,1.861H-80.875v-1.861Z" transform="translate(60.852 94.185)" fill="#415659" fill-rule="evenodd"/>
      <path id="Path_6599" data-name="Path 6599" d="M-80.875,598H3.371l-.1,1.861H-80.875V598Z" transform="translate(60.852 95.907)" fill="#415659" fill-rule="evenodd"/>
      <path id="Path_6600" data-name="Path 6600" d="M-80.875,611.366H2.551l-.1,1.861H-80.875v-1.861Z" transform="translate(60.852 97.63)" fill="#415659" fill-rule="evenodd"/>
      <path id="Path_6601" data-name="Path 6601" d="M-80.875,624.731H1.731l-.1,1.861h-82.5v-1.861Z" transform="translate(60.852 99.353)" fill="#415659" fill-rule="evenodd"/>
      <path id="Path_6602" data-name="Path 6602" d="M-80.875,638.1H.911l-.1,1.862H-80.875V638.1Z" transform="translate(60.852 101.075)" fill="#415659" fill-rule="evenodd"/>
      <path id="Path_6603" data-name="Path 6603" d="M-80.875,651.463H.09l-.1,1.862H-80.875v-1.862Z" transform="translate(60.852 102.798)" fill="#415659" fill-rule="evenodd"/>
      <path id="Path_6604" data-name="Path 6604" d="M22.866,464.347H55.2v1.861H22.951l-.085-1.861Z" transform="translate(74.223 78.681)" fill="#415659" fill-rule="evenodd"/>
      <path id="Path_6605" data-name="Path 6605" d="M23.479,477.712H55.119v1.862H23.564l-.085-1.862Z" transform="translate(74.301 80.404)" fill="#415659" fill-rule="evenodd"/>
      <path id="Path_6606" data-name="Path 6606" d="M24.091,491.078H55.041v1.861H24.176l-.085-1.861Z" transform="translate(74.38 82.126)" fill="#415659" fill-rule="evenodd"/>
      <path id="Path_6607" data-name="Path 6607" d="M24.7,504.442H54.962V506.3H24.789l-.085-1.863Z" transform="translate(74.459 83.849)" fill="#415659" fill-rule="evenodd"/>
      <path id="Path_6608" data-name="Path 6608" d="M25.316,517.807H54.883v1.863H25.4l-.085-1.863Z" transform="translate(74.538 85.571)" fill="#415659" fill-rule="evenodd"/>
      <path id="Path_6609" data-name="Path 6609" d="M25.929,531.174H54.8v1.862H26.014l-.085-1.862Z" transform="translate(74.617 87.294)" fill="#415659" fill-rule="evenodd"/>
      <path id="Path_6610" data-name="Path 6610" d="M26.542,544.539H54.725V546.4h-28.1l-.085-1.863Z" transform="translate(74.696 89.017)" fill="#415659" fill-rule="evenodd"/>
      <path id="Path_6611" data-name="Path 6611" d="M43.654,410.884H52.7v1.863H42.236l1.418-1.863Z" transform="translate(76.719 71.79)" fill="#415659" fill-rule="evenodd"/>
      <path id="Path_6612" data-name="Path 6612" d="M33.476,424.249H54.014v1.862H32.058l1.419-1.862Z" transform="translate(75.407 73.513)" fill="#415659" fill-rule="evenodd"/>
      <path id="Path_6613" data-name="Path 6613" d="M23.3,437.616H55.325v1.861H21.88l1.417-1.861Z" transform="translate(74.095 75.236)" fill="#415659" fill-rule="evenodd"/>
      <path id="Path_6614" data-name="Path 6614" d="M22.254,450.982H55.277v1.861H22.34l-.086-1.861Z" transform="translate(74.144 76.958)" fill="#415659" fill-rule="evenodd"/>
      <path id="Path_6615" data-name="Path 6615" d="M32.055,664.828H54.014v1.863H32.14l-.085-1.863Z" transform="translate(75.407 104.521)" fill="#415659" fill-rule="evenodd"/>
      <path id="Path_6616" data-name="Path 6616" d="M32.668,678.193H53.935v1.863H32.753l-.085-1.863Z" transform="translate(75.486 106.243)" fill="#415659" fill-rule="evenodd"/>
      <path id="Path_6617" data-name="Path 6617" d="M33.28,691.559H53.856v1.862H33.365l-.085-1.862Z" transform="translate(75.565 107.966)" fill="#415659" fill-rule="evenodd"/>
      <path id="Path_6618" data-name="Path 6618" d="M27.154,557.9H54.646v1.861H27.24l-.085-1.861Z" transform="translate(74.775 90.739)" fill="#415659" fill-rule="evenodd"/>
      <path id="Path_6619" data-name="Path 6619" d="M27.767,571.27h26.8v1.861H27.852l-.085-1.861Z" transform="translate(74.854 92.462)" fill="#415659" fill-rule="evenodd"/>
      <path id="Path_6620" data-name="Path 6620" d="M28.38,584.636H54.488V586.5H28.464l-.085-1.861Z" transform="translate(74.933 94.185)" fill="#415659" fill-rule="evenodd"/>
      <path id="Path_6621" data-name="Path 6621" d="M28.992,598H54.409v1.861H29.077L28.992,598Z" transform="translate(75.012 95.907)" fill="#415659" fill-rule="evenodd"/>
      <path id="Path_6622" data-name="Path 6622" d="M29.6,611.366H54.33v1.861H29.69l-.085-1.861Z" transform="translate(75.091 97.63)" fill="#415659" fill-rule="evenodd"/>
      <path id="Path_6623" data-name="Path 6623" d="M30.217,624.731H54.251v1.861H30.3l-.085-1.861Z" transform="translate(75.17 99.353)" fill="#415659" fill-rule="evenodd"/>
      <path id="Path_6624" data-name="Path 6624" d="M30.83,638.1H54.172v1.862H30.915L30.83,638.1Z" transform="translate(75.249 101.075)" fill="#415659" fill-rule="evenodd"/>
      <path id="Path_6625" data-name="Path 6625" d="M31.442,651.463H54.093v1.862H31.528l-.085-1.862Z" transform="translate(75.328 102.798)" fill="#415659" fill-rule="evenodd"/>
      <path id="Path_6626" data-name="Path 6626" d="M-171.747,814.7V389.862l2.832-.463V814.7Z" transform="translate(49.139 69.021)" fill="#5a7f84" fill-rule="evenodd"/>
      <path id="Path_6627" data-name="Path 6627" d="M-178.728,810.527V422.207l2.832-.465V810.527Z" transform="translate(48.239 73.19)" fill="#5a7f84" fill-rule="evenodd"/>
      <path id="Path_6628" data-name="Path 6628" d="M-165.039,812.459V407.209l2.833-.464V812.459Z" transform="translate(50.004 71.257)" fill="#5a7f84" fill-rule="evenodd"/>
      <path id="Path_6629" data-name="Path 6629" d="M492.575,318.975h42.19l-.043,13.228H492.575V318.975Z" transform="translate(134.763 59.944)" fill="#91bcbe" fill-rule="evenodd"/>
      <path id="Path_6630" data-name="Path 6630" d="M477,318.975h15.38l-.016,13.228H477V318.975Z" transform="translate(132.756 59.944)" fill="#82a8aa" fill-rule="evenodd"/>
      <path id="Path_6631" data-name="Path 6631" d="M477,292.243h15.38l-.016,13.228H477V292.243Z" transform="translate(132.756 56.499)" fill="#91bcbe" fill-rule="evenodd"/>
      <path id="Path_6632" data-name="Path 6632" d="M465.974,238.78h15.38l-.015,13.228H465.974V238.78Z" transform="translate(131.334 49.608)" fill="#91bcbe" fill-rule="evenodd"/>
      <path id="Path_6633" data-name="Path 6633" d="M911.982,787.19H827.75V602.8h84.232V787.19Z" transform="translate(177.963 96.526)" fill="#9fc8c5" fill-rule="evenodd"/>
      <path id="Path_6634" data-name="Path 6634" d="M-149.229,534.835V450.981h33.546l-6.986,163.89-26.56-80.036Z" transform="translate(52.041 76.958)" fill="#a5d0cd" fill-rule="evenodd"/>
      <path id="Path_6635" data-name="Path 6635" d="M-553,719.545H1367v16.6H-553v-16.6Z" transform="translate(0 111.573)" fill="#5c7b7f" fill-rule="evenodd"/>
      <path id="Path_6636" data-name="Path 6636" d="M-358.712,723.328l289.725,12.33H-454.3a645.46,645.46,0,0,1,95.587-12.33Zm390.052,0c431.914,2.06,855.842,6.609,1276.011,12.33H321.07L31.34,723.328Z" transform="translate(12.721 112.061)" fill="#28373d" fill-rule="evenodd"/>
      <path id="Path_6637" data-name="Path 6637" d="M-68.425,719.546l1235.854,52.6H777.358l-1235.836-52.6Z" transform="translate(12.183 111.573)" fill="#415659" fill-rule="evenodd"/>
      <path id="Path_6638" data-name="Path 6638" d="M-112.959,719.546l1235.854,52.6H732.824l-845.783-52.6Z" transform="translate(56.716 111.573)" fill="#28373d" fill-rule="evenodd"/>
      <path id="Path_6639" data-name="Path 6639" d="M-108.654,734.249l-200.344,36h93.788l186.386-33.49-58.93-2.508Z" transform="translate(31.449 113.468)" fill="#5c7b7f" fill-rule="evenodd"/>
      <path id="Path_6640" data-name="Path 6640" d="M-.165,676.127a8.663,8.663,0,0,1,1.653,5.094,8.675,8.675,0,0,1-8.673,8.673,8.672,8.672,0,0,1-8.673-8.673H-4.525a5.154,5.154,0,0,1,4.36-5.094Z" transform="translate(69.231 105.977)" fill="#353635" fill-rule="evenodd"/>
      <path id="Path_6641" data-name="Path 6641" d="M30.518,676.073a8.674,8.674,0,1,1-13.95,0Z" transform="translate(73.192 105.97)" fill="#353635" fill-rule="evenodd"/>
      <path id="Path_6642" data-name="Path 6642" d="M29.226,678.483H-4.628a5.147,5.147,0,0,0-.608,2.434h-5.1v2.436H29.226v-4.87Z" transform="translate(69.943 106.281)" fill="#484848" fill-rule="evenodd"/>
      <path id="Path_6643" data-name="Path 6643" d="M17.813,685.562a8.674,8.674,0,0,1-15.026,0H2.542a8.572,8.572,0,0,0,.815-1.9H21.4l.027.091.01.032v0l.01.029.008.032.042.125L21.5,684v0l.011.028.01.03.01.029.01.03.012.035.01.027.014.03.01.032.023.061.009.029.014.032.014.031.011.03.011.03.036.089.012.029.014.029.015.03.011.028.025.06.015.033.026.056.014.029.041.087.012.03.015.029.016.027.014.029.043.087.015.028v.008l.015.021.012.03.058.107.018.034.017.029.062.111.018.028.012.026Zm-30.294,0h-4.4a8.67,8.67,0,0,1-7.51,4.338,8.673,8.673,0,0,1-8.672-8.673h19.419a8.617,8.617,0,0,0,1.162,4.335Zm15.189-8.37-.016-.024-.075-.139,0-.006c-.138-.245-.283-.483-.445-.715l-.016-.027-.087-.123-.01-.014-.007-.012a5.378,5.378,0,0,1,.795-.061h19.9l-.053.073-.011.014-.088.123-.016.027q-.239.347-.445.715l0,.006-.073.139-.016.024a8.8,8.8,0,0,0-.645,1.6H3.355a8.807,8.807,0,0,0-.646-1.6Z" transform="translate(67.014 105.97)" fill="#1f1f1f" fill-rule="evenodd"/>
      <path id="Path_6644" data-name="Path 6644" d="M219.063,619.643H227.4a9.848,9.848,0,0,1,9.817,9.817v49.227A9.844,9.844,0,0,1,227.4,688.5h-8.333a9.842,9.842,0,0,0,9.815-9.813V629.46a9.846,9.846,0,0,0-9.815-9.817Z" transform="translate(99.51 98.697)" fill="#4e4e4e" fill-rule="evenodd"/>
      <path id="Path_6645" data-name="Path 6645" d="M226.445,619.643H523.472a9.848,9.848,0,0,1,9.815,9.817v49.227a9.843,9.843,0,0,1-9.815,9.813H499.941a5.155,5.155,0,0,0-5.152-5.154H460.1a5.153,5.153,0,0,0-5.153,5.154H314.6a5.156,5.156,0,0,0-5.155-5.154h-34.69A5.156,5.156,0,0,0,269.6,688.5H226.445a9.844,9.844,0,0,0,9.817-9.813V629.46a9.848,9.848,0,0,0-9.817-9.817Z" transform="translate(100.462 98.697)" fill="#fff" fill-rule="evenodd"/>
      <path id="Path_6646" data-name="Path 6646" d="M37.326,619.643H68.817c-49,.015-110.143,21.055-129.625,40.529s-16.4,28.328,45.3,28.328H-47.039c-61.871,0-63.363-8.846-43.88-28.327s79.239-40.53,128.245-40.53Z" transform="translate(58.131 98.697)" fill="#e6e6e6" fill-rule="evenodd"/>
      <path id="Path_6647" data-name="Path 6647" d="M65.372,619.643H256.954a9.846,9.846,0,0,1,9.815,9.817v49.227a9.842,9.842,0,0,1-9.792,9.813H233.425a5.154,5.154,0,0,0-5.154-5.154h-34.69a5.155,5.155,0,0,0-5.153,5.154H48.086a5.157,5.157,0,0,0-5.156-5.154H8.242A5.155,5.155,0,0,0,3.088,688.5H-18.993c-61.7,0-64.782-8.846-45.3-28.328s80.66-40.529,129.666-40.529Z" transform="translate(61.619 98.697)" fill="#fff" fill-rule="evenodd"/>
      <path id="Path_6648" data-name="Path 6648" d="M489.56,619.643h8.332a9.844,9.844,0,0,1,9.812,9.817v49.227a9.839,9.839,0,0,1-9.812,9.813H489.56a9.843,9.843,0,0,0,9.815-9.813V629.46a9.848,9.848,0,0,0-9.815-9.817Z" transform="translate(134.374 98.697)" fill="#4e4e4e" fill-rule="evenodd"/>
      <path id="Path_6649" data-name="Path 6649" d="M235.141,636.1H532.166v16.658H235.141V636.1Z" transform="translate(101.582 100.818)" fill="#527896" fill-rule="evenodd"/>
      <path id="Path_6650" data-name="Path 6650" d="M44.675,636.1H252.966v16.658H34.565c-2.438,0-2.916-2.708-1.886-4.208,2.59-3.765,5.548-8.021,7-10.172,1.181-1.716,3.726-2.257,5-2.277Z" transform="translate(75.421 100.818)" fill="#527896" fill-rule="evenodd"/>
      <path id="Path_6651" data-name="Path 6651" d="M137.78,605.568h0L163.59,592.95a.559.559,0,0,1,.482,0l5.711,2.792,5.711-2.792a.562.562,0,0,1,.483,0l25.808,12.618a.552.552,0,0,1,.254.737.536.536,0,0,1-.254.251h0v0L176.989,618.68h-2.505l-4.7-2.3-4.7,2.3h-2.5l-24.8-12.124a.549.549,0,0,1-.252-.735.541.541,0,0,1,.252-.253Zm33.255-9.214,18.847,9.214a.549.549,0,0,1,0,.988h0v0l-18.843,9.212,4.7,2.3,24.557-12.006-24.557-12-4.7,2.3Zm-21.351,9.214h0l18.842-9.214-4.7-2.3-24.556,12,24.556,12.006,4.7-2.3-18.847-9.214a.551.551,0,0,1,0-.988Zm20.1-8.6-18.6,9.1,18.6,9.1,18.6-9.1-18.6-9.1Z" transform="translate(88.994 95.249)" fill="#3d3c3c"/>
      <path id="Path_6652" data-name="Path 6652" d="M148.122,620.147h11.9v-4.411h-11.9v4.411Z" transform="translate(90.367 98.193)" fill="#656666" fill-rule="evenodd"/>
      <path id="Path_6653" data-name="Path 6653" d="M158.666,620.147H187.34v-4.411H158.666v4.411Z" transform="translate(91.726 98.193)" fill="#7f7f7f" fill-rule="evenodd"/>
      <path id="Path_6654" data-name="Path 6654" d="M227.757,636.1h8.336v16.658h-8.336V636.1Z" transform="translate(100.631 100.818)" fill="#1f1f1f" fill-rule="evenodd"/>
      <path id="Path_6655" data-name="Path 6655" d="M498.254,636.1h8.333v16.658h-8.333V636.1Z" transform="translate(135.495 100.818)" fill="#1f1f1f" fill-rule="evenodd"/>
      <path id="Path_6656" data-name="Path 6656" d="M-26.678,627.177H19.075c7.749,0,9.121,1.571,1.436,6.065-2.557,1.5-6.507,3.74-8.955,5.228a36.276,36.276,0,0,1-19.645,5.364H-71.832a239.112,239.112,0,0,1,45.154-16.658Z" transform="translate(62.017 99.668)" fill="#527896" fill-rule="evenodd"/>
      <path id="Path_6657" data-name="Path 6657" d="M-26.678,627.177H4.362a245.608,245.608,0,0,0-45.833,16.654l-.006,0H-71.832a239.112,239.112,0,0,1,45.154-16.658Z" transform="translate(62.017 99.668)" fill="#293a48" fill-rule="evenodd"/>
      <path id="Path_6658" data-name="Path 6658" d="M247.454,636.1h11.7a2.28,2.28,0,0,1,2.27,2.277v12.108a2.277,2.277,0,0,1-2.27,2.272h-11.7a2.281,2.281,0,0,1-2.276-2.272V638.374a2.283,2.283,0,0,1,2.276-2.277Z" transform="translate(102.876 100.818)" fill="#344c60" fill-rule="evenodd"/>
      <path id="Path_6659" data-name="Path 6659" d="M476.093,636.1h11.7a2.282,2.282,0,0,1,2.276,2.277v12.108a2.279,2.279,0,0,1-2.276,2.272h-11.7a2.281,2.281,0,0,1-2.276-2.272V638.374a2.283,2.283,0,0,1,2.276-2.277Z" transform="translate(132.345 100.818)" fill="#344c60" fill-rule="evenodd"/>
      <path id="Path_6660" data-name="Path 6660" d="M271.515,636.1h26.222a2.28,2.28,0,0,1,2.271,2.277v12.108a2.278,2.278,0,0,1-2.271,2.272H271.515a2.28,2.28,0,0,1-2.274-2.272V638.374a2.282,2.282,0,0,1,2.274-2.277Z" transform="translate(105.977 100.818)" fill="#344c60" fill-rule="evenodd"/>
      <path id="Path_6661" data-name="Path 6661" d="M305.046,636.1h26.22a2.283,2.283,0,0,1,2.277,2.277v12.107a2.281,2.281,0,0,1-2.277,2.274h-26.22a2.28,2.28,0,0,1-2.274-2.274V638.374a2.282,2.282,0,0,1,2.274-2.277Z" transform="translate(110.299 100.818)" fill="#344c60" fill-rule="evenodd"/>
      <path id="Path_6662" data-name="Path 6662" d="M338.575,636.1H364.8a2.282,2.282,0,0,1,2.272,2.277v12.107a2.28,2.28,0,0,1-2.272,2.274H338.575a2.279,2.279,0,0,1-2.272-2.274V638.374a2.281,2.281,0,0,1,2.272-2.277Z" transform="translate(114.621 100.818)" fill="#344c60" fill-rule="evenodd"/>
      <path id="Path_6663" data-name="Path 6663" d="M372.108,636.1h26.221a2.283,2.283,0,0,1,2.275,2.277v12.107a2.282,2.282,0,0,1-2.275,2.274H372.108a2.28,2.28,0,0,1-2.275-2.274V638.374a2.282,2.282,0,0,1,2.275-2.277Z" transform="translate(118.943 100.818)" fill="#344c60" fill-rule="evenodd"/>
      <path id="Path_6664" data-name="Path 6664" d="M405.638,636.1h26.222a2.28,2.28,0,0,1,2.272,2.277v12.107a2.278,2.278,0,0,1-2.272,2.274H405.638a2.282,2.282,0,0,1-2.274-2.274V638.374a2.284,2.284,0,0,1,2.274-2.277Z" transform="translate(123.264 100.818)" fill="#344c60" fill-rule="evenodd"/>
      <path id="Path_6665" data-name="Path 6665" d="M439.167,636.1H465.39a2.282,2.282,0,0,1,2.274,2.277v12.108a2.28,2.28,0,0,1-2.274,2.272H439.167a2.279,2.279,0,0,1-2.272-2.272V638.374a2.282,2.282,0,0,1,2.272-2.277Z" transform="translate(127.586 100.818)" fill="#344c60" fill-rule="evenodd"/>
      <path id="Path_6666" data-name="Path 6666" d="M205.6,636.1h11.7a2.282,2.282,0,0,1,2.276,2.277v12.108a2.28,2.28,0,0,1-2.276,2.272H205.6a2.278,2.278,0,0,1-2.275-2.272V638.374A2.281,2.281,0,0,1,205.6,636.1Z" transform="translate(97.481 100.818)" fill="#344c60" fill-rule="evenodd"/>
      <path id="Path_6667" data-name="Path 6667" d="M44.734,636.1H60.784a2.284,2.284,0,0,1,2.276,2.277v12.107a2.282,2.282,0,0,1-2.276,2.274H34.565c-2.438,0-2.916-2.708-1.886-4.208,2.59-3.765,5.548-8.021,7-10.172,1.2-1.744,3.809-2.277,5.057-2.277Z" transform="translate(75.421 100.818)" fill="#344c60" fill-rule="evenodd"/>
      <path id="Path_6668" data-name="Path 6668" d="M68.082,636.1H94.3a2.281,2.281,0,0,1,2.272,2.277v12.107a2.28,2.28,0,0,1-2.272,2.274H68.082a2.281,2.281,0,0,1-2.275-2.274V638.374a2.283,2.283,0,0,1,2.275-2.277Z" transform="translate(79.757 100.818)" fill="#344c60" fill-rule="evenodd"/>
      <path id="Path_6669" data-name="Path 6669" d="M101.614,636.1h26.218a2.283,2.283,0,0,1,2.276,2.277v12.107a2.281,2.281,0,0,1-2.276,2.274H101.614a2.282,2.282,0,0,1-2.276-2.274V638.374a2.283,2.283,0,0,1,2.276-2.277Z" transform="translate(84.079 100.818)" fill="#344c60" fill-rule="evenodd"/>
      <path id="Path_6670" data-name="Path 6670" d="M135.143,636.1h26.22a2.282,2.282,0,0,1,2.274,2.277v12.107a2.28,2.28,0,0,1-2.274,2.274h-26.22a2.281,2.281,0,0,1-2.274-2.274V638.374a2.283,2.283,0,0,1,2.274-2.277Z" transform="translate(88.401 100.818)" fill="#344c60" fill-rule="evenodd"/>
      <path id="Path_6671" data-name="Path 6671" d="M168.674,636.1h26.22a2.282,2.282,0,0,1,2.274,2.277v12.108a2.28,2.28,0,0,1-2.274,2.272h-26.22a2.28,2.28,0,0,1-2.275-2.272V638.374a2.282,2.282,0,0,1,2.275-2.277Z" transform="translate(92.722 100.818)" fill="#344c60" fill-rule="evenodd"/>
      <path id="Path_6672" data-name="Path 6672" d="M533.287,669.154v3.152a9.843,9.843,0,0,1-9.815,9.813H499.941a5.155,5.155,0,0,0-5.152-5.154H460.1a5.153,5.153,0,0,0-5.153,5.154H314.6a5.156,5.156,0,0,0-5.155-5.154h-34.69a5.156,5.156,0,0,0-5.155,5.154H226.445a9.844,9.844,0,0,0,9.817-9.813v-3.152Z" transform="translate(100.462 105.078)" fill="#da7474" fill-rule="evenodd"/>
      <path id="Path_6673" data-name="Path 6673" d="M235.141,630.078H532.166v3.014H235.141v-3.014Z" transform="translate(101.582 100.042)" fill="#da7474" fill-rule="evenodd"/>
      <path id="Path_6674" data-name="Path 6674" d="M533.257,672.615a9.847,9.847,0,0,1-9.784,9.058H499.941a5.155,5.155,0,0,0-5.152-5.154H460.1a5.153,5.153,0,0,0-5.153,5.154H314.6a5.156,5.156,0,0,0-5.155-5.154h-34.69a5.156,5.156,0,0,0-5.155,5.154H226.445a9.846,9.846,0,0,0,9.785-9.058Z" transform="translate(100.462 105.524)" fill="#853c3c" fill-rule="evenodd"/>
      <path id="Path_6675" data-name="Path 6675" d="M266.769,674.19v3.152a9.842,9.842,0,0,1-9.792,9.813H233.425A5.154,5.154,0,0,0,228.27,682h-34.69a5.155,5.155,0,0,0-5.153,5.154H48.086A5.157,5.157,0,0,0,42.931,682H8.242a5.155,5.155,0,0,0-5.155,5.154H-18.993c-53.071,0-62.773-6.544-52.051-20.773h43.936A42.9,42.9,0,0,0-.279,657.46l27.3-21.255a29.887,29.887,0,0,1,18.791-6.128H266.769v3.014H58.865c-5.069,0-7.771,1.63-10.246,4.8L26.412,666.383c-3.55,4.556-2.113,7.807,4.141,7.807Z" transform="translate(61.619 100.042)" fill="#da7474" fill-rule="evenodd"/>
      <path id="Path_6676" data-name="Path 6676" d="M266.646,672.615a9.845,9.845,0,0,1-9.763,9.058H233.331a5.154,5.154,0,0,0-5.154-5.154h-34.69a5.155,5.155,0,0,0-5.153,5.154H47.992a5.157,5.157,0,0,0-5.156-5.154H8.148a5.155,5.155,0,0,0-5.155,5.154H-19.087c-35.369,0-51.471-2.909-55.107-9.058Z" transform="translate(61.713 105.524)" fill="#853c3c" fill-rule="evenodd"/>
      <path id="Path_6677" data-name="Path 6677" d="M-67.557,662.238c-10.722,14.229-1.021,20.773,52.051,20.773H-47.039c-53.218,0-61.765-6.544-50.714-20.773Z" transform="translate(58.132 104.187)" fill="#c16060" fill-rule="evenodd"/>
      <path id="Path_6678" data-name="Path 6678" d="M-70.686,672.615c3.636,6.149,19.737,9.058,55.107,9.058H-47.113c-35.467,0-51.088-2.908-54.3-9.058Z" transform="translate(58.205 105.524)" fill="#6e3838" fill-rule="evenodd"/>
      <path id="Path_6679" data-name="Path 6679" d="M164.012,676.127a8.672,8.672,0,1,1-15.69,5.094h11.332a5.156,5.156,0,0,1,4.359-5.094Z" transform="translate(90.392 105.977)" fill="#353635" fill-rule="evenodd"/>
      <path id="Path_6680" data-name="Path 6680" d="M194.7,676.073a8.673,8.673,0,1,1-13.952,0Z" transform="translate(94.353 105.97)" fill="#353635" fill-rule="evenodd"/>
      <path id="Path_6681" data-name="Path 6681" d="M193.408,678.483H159.553a5.123,5.123,0,0,0-.611,2.434h-5.1v2.436h39.563v-4.87Z" transform="translate(91.104 106.281)" fill="#484848" fill-rule="evenodd"/>
      <path id="Path_6682" data-name="Path 6682" d="M181.991,685.562a8.672,8.672,0,0,1-15.023,0h-.245a8.67,8.67,0,0,0,.812-1.9h18.039l.027.091.01.032v0l.01.029.01.032.038.125.01.028v0l.009.028.011.03.011.029.01.03.014.035.009.027.011.03.011.032.023.061.011.029.011.032.015.031.01.03.012.03.038.089.011.029.011.029.014.03.014.028.026.06.015.033.026.056.01.029.043.087.014.03.015.029.014.027.011.029.047.087.016.028,0,.008.01.021.012.03.061.107.016.034.015.029.065.111.015.028.015.026Zm-30.293,0h-4.4a8.673,8.673,0,0,1-16.185-4.335h19.421a8.616,8.616,0,0,0,1.159,4.335Zm15.189-8.37-.015-.024-.073-.139,0-.006c-.137-.245-.282-.483-.443-.715l-.019-.027-.086-.123-.01-.014-.008-.012a5.415,5.415,0,0,1,.795-.061h19.9l-.055.073-.008.014-.087.123-.02.027c-.158.231-.3.47-.443.715l0,.006-.077.139-.014.024a8.974,8.974,0,0,0-.647,1.6H167.535a8.349,8.349,0,0,0-.647-1.6Z" transform="translate(88.175 105.97)" fill="#1f1f1f" fill-rule="evenodd"/>
      <path id="Path_6683" data-name="Path 6683" d="M270.327,676.127a8.672,8.672,0,1,1-15.69,5.094h11.332a5.154,5.154,0,0,1,4.359-5.094Z" transform="translate(104.095 105.977)" fill="#353635" fill-rule="evenodd"/>
      <path id="Path_6684" data-name="Path 6684" d="M301.013,676.073a8.673,8.673,0,1,1-13.951,0Z" transform="translate(108.055 105.97)" fill="#353635" fill-rule="evenodd"/>
      <path id="Path_6685" data-name="Path 6685" d="M299.717,678.483h-33.85a5.148,5.148,0,0,0-.611,2.434h-5.1v2.436h39.557v-4.87Z" transform="translate(104.807 106.281)" fill="#484848" fill-rule="evenodd"/>
      <path id="Path_6686" data-name="Path 6686" d="M288.31,685.562a8.675,8.675,0,0,1-15.027,0h-.245a8.845,8.845,0,0,0,.815-1.9h18.037l.027.091.008.032v0l.011.029.009.032.041.125L292,684l0,0,.009.028.011.03.012.029.009.03.011.035.01.027.014.03.008.032.026.061.009.029.014.032.01.031.015.03.011.03.035.089.014.029.015.029.01.03.012.028.027.06.012.033.029.056.014.029.036.087.016.03.015.029.012.027.018.029.041.087.016.028,0,.008.01.021.016.03.059.107.015.034.018.029.062.111.017.028.012.026Zm-30.3,0h-4.4a8.672,8.672,0,0,1-16.184-4.335h19.422a8.639,8.639,0,0,0,1.159,4.335Zm15.188-8.37-.012-.024-.073-.139,0-.006c-.138-.245-.283-.483-.445-.715l-.02-.027-.085-.123-.01-.014-.008-.012a5.465,5.465,0,0,1,.8-.061h19.9l-.051.073-.015.014-.086.123-.016.027c-.16.231-.306.47-.446.715l0,.006-.075.139-.015.024a8.646,8.646,0,0,0-.645,1.6H273.852a8.509,8.509,0,0,0-.65-1.6Z" transform="translate(101.878 105.97)" fill="#1f1f1f" fill-rule="evenodd"/>
      <path id="Path_6687" data-name="Path 6687" d="M434.506,676.127a8.672,8.672,0,1,1-15.69,5.094H430.15a5.155,5.155,0,0,1,4.356-5.094Z" transform="translate(125.256 105.977)" fill="#353635" fill-rule="evenodd"/>
      <path id="Path_6688" data-name="Path 6688" d="M465.195,676.073a8.674,8.674,0,1,1-13.953,0Z" transform="translate(129.216 105.97)" fill="#353635" fill-rule="evenodd"/>
      <path id="Path_6689" data-name="Path 6689" d="M463.9,678.483H430.049a5.11,5.11,0,0,0-.611,2.434h-5.1v2.436H463.9v-4.87Z" transform="translate(125.968 106.281)" fill="#484848" fill-rule="evenodd"/>
      <path id="Path_6690" data-name="Path 6690" d="M452.487,685.562a8.672,8.672,0,0,1-15.023,0h-.247a8.621,8.621,0,0,0,.814-1.9h18.039l.028.091.008.032,0,0,.007.029.01.032.041.125.01.028v0l.008.028.014.03.011.029.01.03.01.035.01.027.011.03.011.032.024.061.01.029.012.032.011.031.015.03.01.03.036.089.014.029.012.029.012.03.015.028.024.06.014.033.027.056.014.029.041.087.015.03.012.029.014.027.015.029.044.087.015.028,0,.008.012.021.011.03.061.107.017.034.014.029.063.111.018.028.016.026Zm-30.295,0h-4.4a8.672,8.672,0,0,1-16.184-4.335h19.42a8.639,8.639,0,0,0,1.159,4.335Zm15.189-8.37-.011-.024-.077-.139,0-.006a8.049,8.049,0,0,0-.443-.715l-.018-.027-.086-.123-.015-.014-.007-.012a5.457,5.457,0,0,1,.8-.061h19.9l-.053.073-.011.014-.087.123-.017.027c-.159.231-.309.47-.446.715l0,.006-.072.139-.017.024a8.807,8.807,0,0,0-.646,1.6H438.031a8.581,8.581,0,0,0-.649-1.6Z" transform="translate(123.039 105.97)" fill="#1f1f1f" fill-rule="evenodd"/>
      <path id="Path_6691" data-name="Path 6691" d="M496.941,619.643H793.967a9.846,9.846,0,0,1,9.813,9.817v49.227a9.842,9.842,0,0,1-9.813,9.813H770.437a5.155,5.155,0,0,0-5.153-5.154H730.593a5.156,5.156,0,0,0-5.156,5.154H585.1a5.156,5.156,0,0,0-5.158-5.154H545.251A5.156,5.156,0,0,0,540.1,688.5H496.941a9.841,9.841,0,0,0,9.812-9.813V629.46a9.845,9.845,0,0,0-9.812-9.817Z" transform="translate(135.325 98.697)" fill="#fff" fill-rule="evenodd"/>
      <path id="Path_6692" data-name="Path 6692" d="M760.055,619.643h8.332a9.847,9.847,0,0,1,9.814,9.817v49.227a9.843,9.843,0,0,1-9.814,9.813h-8.332a9.842,9.842,0,0,0,9.813-9.813V629.46a9.846,9.846,0,0,0-9.813-9.817Z" transform="translate(169.238 98.697)" fill="#4e4e4e" fill-rule="evenodd"/>
      <path id="Path_6693" data-name="Path 6693" d="M505.633,636.1H802.66v16.658H505.633V636.1Z" transform="translate(136.446 100.818)" fill="#527896" fill-rule="evenodd"/>
      <path id="Path_6694" data-name="Path 6694" d="M768.748,636.1h8.334v16.658h-8.334V636.1Z" transform="translate(170.358 100.818)" fill="#1f1f1f" fill-rule="evenodd"/>
      <path id="Path_6695" data-name="Path 6695" d="M517.945,636.1h11.707a2.282,2.282,0,0,1,2.272,2.277v12.108a2.279,2.279,0,0,1-2.272,2.272H517.945a2.279,2.279,0,0,1-2.272-2.272V638.374a2.282,2.282,0,0,1,2.272-2.277Z" transform="translate(137.74 100.818)" fill="#344c60" fill-rule="evenodd"/>
      <path id="Path_6696" data-name="Path 6696" d="M746.584,636.1h11.7a2.284,2.284,0,0,1,2.275,2.277v12.108a2.281,2.281,0,0,1-2.275,2.272h-11.7a2.28,2.28,0,0,1-2.272-2.272V638.374a2.283,2.283,0,0,1,2.272-2.277Z" transform="translate(167.209 100.818)" fill="#344c60" fill-rule="evenodd"/>
      <path id="Path_6697" data-name="Path 6697" d="M542.009,636.1h26.223a2.282,2.282,0,0,1,2.274,2.277v12.108a2.28,2.28,0,0,1-2.274,2.272H542.009a2.28,2.28,0,0,1-2.274-2.272V638.374a2.283,2.283,0,0,1,2.274-2.277Z" transform="translate(140.841 100.818)" fill="#344c60" fill-rule="evenodd"/>
      <path id="Path_6698" data-name="Path 6698" d="M575.539,636.1h26.219a2.283,2.283,0,0,1,2.277,2.277v12.107a2.281,2.281,0,0,1-2.277,2.274H575.539a2.279,2.279,0,0,1-2.271-2.274V638.374a2.281,2.281,0,0,1,2.271-2.277Z" transform="translate(145.163 100.818)" fill="#344c60" fill-rule="evenodd"/>
      <path id="Path_6699" data-name="Path 6699" d="M609.073,636.1h26.218a2.283,2.283,0,0,1,2.276,2.277v12.107a2.281,2.281,0,0,1-2.276,2.274H609.073a2.282,2.282,0,0,1-2.276-2.274V638.374a2.284,2.284,0,0,1,2.276-2.277Z" transform="translate(149.485 100.818)" fill="#344c60" fill-rule="evenodd"/>
      <path id="Path_6700" data-name="Path 6700" d="M642.6,636.1h26.221a2.283,2.283,0,0,1,2.275,2.277v12.107a2.281,2.281,0,0,1-2.275,2.274H642.6a2.282,2.282,0,0,1-2.276-2.274V638.374A2.283,2.283,0,0,1,642.6,636.1Z" transform="translate(153.806 100.818)" fill="#344c60" fill-rule="evenodd"/>
      <path id="Path_6701" data-name="Path 6701" d="M676.134,636.1h26.22a2.285,2.285,0,0,1,2.277,2.277v12.107a2.283,2.283,0,0,1-2.277,2.274h-26.22a2.28,2.28,0,0,1-2.275-2.274V638.374a2.282,2.282,0,0,1,2.275-2.277Z" transform="translate(158.128 100.818)" fill="#344c60" fill-rule="evenodd"/>
      <path id="Path_6702" data-name="Path 6702" d="M709.663,636.1h26.223a2.283,2.283,0,0,1,2.274,2.277v12.108a2.281,2.281,0,0,1-2.274,2.272H709.663a2.281,2.281,0,0,1-2.276-2.272V638.374a2.284,2.284,0,0,1,2.276-2.277Z" transform="translate(162.449 100.818)" fill="#344c60" fill-rule="evenodd"/>
      <path id="Path_6703" data-name="Path 6703" d="M803.781,669.154v3.152a9.842,9.842,0,0,1-9.813,9.813H770.437a5.155,5.155,0,0,0-5.153-5.154H730.593a5.156,5.156,0,0,0-5.156,5.154H585.1a5.156,5.156,0,0,0-5.158-5.154H545.251a5.156,5.156,0,0,0-5.153,5.154H496.941a9.841,9.841,0,0,0,9.812-9.813v-3.152Z" transform="translate(135.325 105.078)" fill="#da7474" fill-rule="evenodd"/>
      <path id="Path_6704" data-name="Path 6704" d="M505.633,630.078H802.66v3.014H505.633v-3.014Z" transform="translate(136.446 100.042)" fill="#da7474" fill-rule="evenodd"/>
      <path id="Path_6705" data-name="Path 6705" d="M803.75,672.615a9.847,9.847,0,0,1-9.783,9.058H770.437a5.155,5.155,0,0,0-5.153-5.154H730.593a5.156,5.156,0,0,0-5.156,5.154H585.1a5.156,5.156,0,0,0-5.158-5.154H545.251a5.156,5.156,0,0,0-5.153,5.154H496.941a9.85,9.85,0,0,0,9.785-9.058Z" transform="translate(135.325 105.524)" fill="#853c3c" fill-rule="evenodd"/>
      <path id="Path_6706" data-name="Path 6706" d="M540.822,676.127a8.673,8.673,0,1,1-15.693,5.094h11.335a5.156,5.156,0,0,1,4.358-5.094Z" transform="translate(138.958 105.977)" fill="#353635" fill-rule="evenodd"/>
      <path id="Path_6707" data-name="Path 6707" d="M571.508,676.073a8.675,8.675,0,1,1-13.95,0Z" transform="translate(142.919 105.97)" fill="#353635" fill-rule="evenodd"/>
      <path id="Path_6708" data-name="Path 6708" d="M570.216,678.483H536.361a5.147,5.147,0,0,0-.61,2.434h-5.095v2.436h39.559v-4.87Z" transform="translate(139.671 106.281)" fill="#484848" fill-rule="evenodd"/>
      <path id="Path_6709" data-name="Path 6709" d="M558.8,685.562a8.673,8.673,0,0,1-15.024,0h-.245a8.565,8.565,0,0,0,.814-1.9h18.039l.028.091.008.032v0l.008.029.014.032.039.125.012.028v0l.008.028.008.03.015.029.008.03.012.035.011.027.009.03.012.032.024.061.012.029.01.032.012.031.01.03.013.03.038.089.014.029.009.029.011.03.015.028.026.06.012.033.028.056.014.029.038.087.017.03.014.029.014.027.014.029.044.087.015.028,0,.008.009.021.015.03.061.107.015.034.016.029.063.111.016.028.016.026Zm-30.295,0h-4.394a8.673,8.673,0,0,1-16.185-4.335h19.418a8.652,8.652,0,0,0,1.16,4.335Zm15.193-8.37-.013-.024-.073-.139,0-.006c-.139-.245-.286-.483-.443-.715l-.021-.027-.087-.123-.01-.014-.008-.012a5.451,5.451,0,0,1,.8-.061h19.9l-.054.073-.012.014-.086.123-.02.027q-.237.347-.441.715l0,.006-.075.139-.013.024a8.655,8.655,0,0,0-.648,1.6H544.346a8.647,8.647,0,0,0-.647-1.6Z" transform="translate(136.741 105.97)" fill="#1f1f1f" fill-rule="evenodd"/>
      <path id="Path_6710" data-name="Path 6710" d="M705,676.127a8.673,8.673,0,1,1-15.694,5.094h11.334a5.157,5.157,0,0,1,4.36-5.094Z" transform="translate(160.119 105.977)" fill="#353635" fill-rule="evenodd"/>
      <path id="Path_6711" data-name="Path 6711" d="M735.684,676.073a8.67,8.67,0,1,1-13.949,0Z" transform="translate(164.08 105.97)" fill="#353635" fill-rule="evenodd"/>
      <path id="Path_6712" data-name="Path 6712" d="M734.394,678.483H700.542a5.11,5.11,0,0,0-.612,2.434h-5.094v2.436h39.557v-4.87Z" transform="translate(160.832 106.281)" fill="#484848" fill-rule="evenodd"/>
      <path id="Path_6713" data-name="Path 6713" d="M722.979,685.562a8.67,8.67,0,0,1-15.021,0h-.248a8.685,8.685,0,0,0,.816-1.9h18.033l.034.091.009.032v0l.01.029.01.032.036.125.016.028v0l.008.028.01.03.01.029.012.03.008.035.012.027.011.03.014.032.023.061.01.029.011.032.012.031.012.03.011.03.037.089.012.029.012.029.014.03.013.028.026.06.011.033.026.056.013.029.041.087.016.03.012.029.016.027.016.029.041.087.015.028,0,.008.011.021.018.03.055.107.016.034.018.029.062.111.014.028.019.026Zm-30.293,0h-4.395a8.673,8.673,0,0,1-16.185-4.335h19.419a8.64,8.64,0,0,0,1.16,4.335Zm15.191-8.37-.015-.024-.071-.139,0-.006c-.139-.245-.289-.483-.445-.715l-.019-.027-.087-.123-.012-.014-.006-.012a5.442,5.442,0,0,1,.8-.061h19.9l-.05.073-.015.014-.086.123-.018.027c-.158.231-.307.47-.443.715l-.006.006-.071.139-.014.024a8.587,8.587,0,0,0-.65,1.6H708.526a8.5,8.5,0,0,0-.648-1.6Z" transform="translate(157.902 105.97)" fill="#1f1f1f" fill-rule="evenodd"/>
      <path id="Path_6714" data-name="Path 6714" d="M767.436,619.643H1064.46a9.843,9.843,0,0,1,9.812,9.817v49.227a9.838,9.838,0,0,1-9.812,9.813h-23.528a5.156,5.156,0,0,0-5.154-5.154h-34.689a5.155,5.155,0,0,0-5.154,5.154H855.592a5.156,5.156,0,0,0-5.157-5.154h-34.69a5.155,5.155,0,0,0-5.153,5.154H767.436a9.843,9.843,0,0,0,9.814-9.813V629.46a9.847,9.847,0,0,0-9.814-9.817Z" transform="translate(170.189 98.697)" fill="#fff" fill-rule="evenodd"/>
      <path id="Path_6715" data-name="Path 6715" d="M1030.548,619.643h8.333a9.848,9.848,0,0,1,9.816,9.817v49.227a9.844,9.844,0,0,1-9.816,9.813h-8.333a9.838,9.838,0,0,0,9.812-9.813V629.46a9.843,9.843,0,0,0-9.812-9.817Z" transform="translate(204.101 98.697)" fill="#4e4e4e" fill-rule="evenodd"/>
      <path id="Path_6716" data-name="Path 6716" d="M776.131,636.1h297.023v16.658H776.131V636.1Z" transform="translate(171.31 100.818)" fill="#527896" fill-rule="evenodd"/>
      <path id="Path_6717" data-name="Path 6717" d="M1039.24,636.1h8.336v16.658h-8.336V636.1Z" transform="translate(205.222 100.818)" fill="#1f1f1f" fill-rule="evenodd"/>
      <path id="Path_6718" data-name="Path 6718" d="M788.441,636.1h11.7a2.283,2.283,0,0,1,2.274,2.277v12.108a2.28,2.28,0,0,1-2.274,2.272h-11.7a2.28,2.28,0,0,1-2.272-2.272V638.374a2.283,2.283,0,0,1,2.272-2.277Z" transform="translate(172.604 100.818)" fill="#344c60" fill-rule="evenodd"/>
      <path id="Path_6719" data-name="Path 6719" d="M1017.08,636.1h11.7a2.283,2.283,0,0,1,2.274,2.277v12.108a2.28,2.28,0,0,1-2.274,2.272h-11.7a2.279,2.279,0,0,1-2.272-2.272V638.374a2.282,2.282,0,0,1,2.272-2.277Z" transform="translate(202.072 100.818)" fill="#344c60" fill-rule="evenodd"/>
      <path id="Path_6720" data-name="Path 6720" d="M812.5,636.1h26.221A2.285,2.285,0,0,1,841,638.374v12.108a2.282,2.282,0,0,1-2.277,2.272H812.5a2.28,2.28,0,0,1-2.274-2.272V638.374A2.281,2.281,0,0,1,812.5,636.1Z" transform="translate(175.705 100.818)" fill="#344c60" fill-rule="evenodd"/>
      <path id="Path_6721" data-name="Path 6721" d="M846.033,636.1h26.224a2.282,2.282,0,0,1,2.271,2.277v12.107a2.28,2.28,0,0,1-2.271,2.274H846.033a2.28,2.28,0,0,1-2.272-2.274V638.374a2.282,2.282,0,0,1,2.272-2.277Z" transform="translate(180.026 100.818)" fill="#344c60" fill-rule="evenodd"/>
      <path id="Path_6722" data-name="Path 6722" d="M879.565,636.1h26.222a2.282,2.282,0,0,1,2.275,2.277v12.107a2.281,2.281,0,0,1-2.275,2.274H879.565a2.28,2.28,0,0,1-2.272-2.274V638.374a2.282,2.282,0,0,1,2.272-2.277Z" transform="translate(184.348 100.818)" fill="#344c60" fill-rule="evenodd"/>
      <path id="Path_6723" data-name="Path 6723" d="M913.094,636.1h26.224a2.283,2.283,0,0,1,2.272,2.277v12.107a2.28,2.28,0,0,1-2.272,2.274H913.094a2.278,2.278,0,0,1-2.27-2.274V638.374a2.279,2.279,0,0,1,2.27-2.277Z" transform="translate(188.67 100.818)" fill="#344c60" fill-rule="evenodd"/>
      <path id="Path_6724" data-name="Path 6724" d="M946.629,636.1h26.219a2.282,2.282,0,0,1,2.274,2.277v12.107a2.28,2.28,0,0,1-2.274,2.274H946.629a2.279,2.279,0,0,1-2.274-2.274V638.374a2.281,2.281,0,0,1,2.274-2.277Z" transform="translate(192.992 100.818)" fill="#344c60" fill-rule="evenodd"/>
      <path id="Path_6725" data-name="Path 6725" d="M980.157,636.1h26.223a2.283,2.283,0,0,1,2.272,2.277v12.108a2.28,2.28,0,0,1-2.272,2.272H980.157a2.278,2.278,0,0,1-2.272-2.272V638.374a2.28,2.28,0,0,1,2.272-2.277Z" transform="translate(197.314 100.818)" fill="#344c60" fill-rule="evenodd"/>
      <path id="Path_6726" data-name="Path 6726" d="M1074.272,669.154v3.152a9.838,9.838,0,0,1-9.812,9.813h-23.528a5.156,5.156,0,0,0-5.154-5.154h-34.689a5.155,5.155,0,0,0-5.154,5.154H855.592a5.156,5.156,0,0,0-5.157-5.154h-34.69a5.155,5.155,0,0,0-5.153,5.154H767.436a9.843,9.843,0,0,0,9.814-9.813v-3.152Z" transform="translate(170.189 105.078)" fill="#da7474" fill-rule="evenodd"/>
      <path id="Path_6727" data-name="Path 6727" d="M776.129,630.078h297.023v3.014H776.129v-3.014Z" transform="translate(171.31 100.042)" fill="#da7474" fill-rule="evenodd"/>
      <path id="Path_6728" data-name="Path 6728" d="M1074.245,672.615a9.848,9.848,0,0,1-9.785,9.058h-23.528a5.156,5.156,0,0,0-5.154-5.154h-34.689a5.155,5.155,0,0,0-5.154,5.154H855.592a5.156,5.156,0,0,0-5.157-5.154h-34.69a5.155,5.155,0,0,0-5.153,5.154H767.436a9.845,9.845,0,0,0,9.784-9.058Z" transform="translate(170.189 105.524)" fill="#853c3c" fill-rule="evenodd"/>
      <path id="Path_6729" data-name="Path 6729" d="M811.317,676.127a8.673,8.673,0,1,1-15.693,5.094h11.335a5.158,5.158,0,0,1,4.358-5.094Z" transform="translate(173.822 105.977)" fill="#353635" fill-rule="evenodd"/>
      <path id="Path_6730" data-name="Path 6730" d="M842,676.073a8.674,8.674,0,1,1-13.952,0Z" transform="translate(177.783 105.97)" fill="#353635" fill-rule="evenodd"/>
      <path id="Path_6731" data-name="Path 6731" d="M840.712,678.483H806.859a5.1,5.1,0,0,0-.612,2.434h-5.1v2.436h39.561v-4.87Z" transform="translate(174.535 106.281)" fill="#484848" fill-rule="evenodd"/>
      <path id="Path_6732" data-name="Path 6732" d="M829.3,685.562a8.67,8.67,0,0,1-15.021,0h-.246a8.62,8.62,0,0,0,.813-1.9h18.037l.027.091.012.032v0l.007.029.01.032.04.125.01.028v0l.011.028.012.03.01.029.009.03.015.035.008.027.011.03.011.032.024.061.011.029.01.032.014.031.011.03.012.03.038.089.01.029.011.029.015.03.012.028.027.06.014.033.026.056.012.029.042.087.016.03.01.029.016.027.012.029.045.087.015.028,0,.008.012.021.012.03.06.107.019.034.014.029.061.111.017.028.017.026Zm-30.293,0h-4.395a8.674,8.674,0,0,1-16.186-4.335h19.419A8.606,8.606,0,0,0,799,685.562Zm15.19-8.37-.011-.024-.077-.139,0-.006c-.138-.245-.283-.483-.445-.715l-.017-.027-.086-.123-.012-.014-.009-.012a5.465,5.465,0,0,1,.8-.061h19.9l-.055.073-.011.014-.086.123-.018.027a7.781,7.781,0,0,0-.443.715l-.006.006-.076.139-.012.024a8.728,8.728,0,0,0-.647,1.6H814.841a8.655,8.655,0,0,0-.648-1.6Z" transform="translate(171.605 105.97)" fill="#1f1f1f" fill-rule="evenodd"/>
      <path id="Path_6733" data-name="Path 6733" d="M975.5,676.127A8.673,8.673,0,1,1,959.8,681.22H971.14a5.155,5.155,0,0,1,4.356-5.094Z" transform="translate(194.983 105.977)" fill="#353635" fill-rule="evenodd"/>
      <path id="Path_6734" data-name="Path 6734" d="M1006.179,676.073a8.672,8.672,0,1,1-13.946,0Z" transform="translate(198.944 105.97)" fill="#353635" fill-rule="evenodd"/>
      <path id="Path_6735" data-name="Path 6735" d="M1004.891,678.483H971.036a5.147,5.147,0,0,0-.608,2.434h-5.1v2.436h39.56v-4.87Z" transform="translate(195.695 106.281)" fill="#484848" fill-rule="evenodd"/>
      <path id="Path_6736" data-name="Path 6736" d="M993.478,685.562a8.673,8.673,0,0,1-15.024,0h-.247a8.675,8.675,0,0,0,.814-1.9h18.038l.027.091.01.032v0l.009.029.008.032.042.125.011.028v0l.011.028.011.03.008.029.011.03.01.035.011.027.011.03.012.032.024.061.01.029.01.032.015.031.011.03.009.03.041.089.009.029.016.029.012.03.012.028.026.06.015.033.024.056.015.029.041.087.012.03.017.029.016.027.011.029.043.087.014.028,0,.008.017.021.011.03.055.107.02.034.014.029.063.111.017.028.015.026Zm-30.294,0h-4.4a8.674,8.674,0,0,1-16.186-4.335h19.42a8.606,8.606,0,0,0,1.163,4.335Zm15.189-8.37-.015-.024-.073-.139,0-.006c-.135-.245-.287-.483-.445-.715l-.018-.027-.085-.123-.014-.014-.008-.012a5.424,5.424,0,0,1,.8-.061h19.9l-.055.073-.01.014-.086.123-.019.027c-.16.231-.306.47-.443.715l0,.006-.076.139-.011.024a8.505,8.505,0,0,0-.649,1.6H979.02a8.733,8.733,0,0,0-.647-1.6Z" transform="translate(192.766 105.97)" fill="#1f1f1f" fill-rule="evenodd"/>
      <path id="Path_6737" data-name="Path 6737" d="M1037.93,619.643h124.017V688.5h-35.862a5.153,5.153,0,0,0-5.151-5.154h-34.692a5.156,5.156,0,0,0-5.154,5.154H1037.93a9.845,9.845,0,0,0,9.816-9.813V629.46a9.847,9.847,0,0,0-9.816-9.817Z" transform="translate(205.053 98.697)" fill="#fff" fill-rule="evenodd"/>
      <path id="Path_6738" data-name="Path 6738" d="M1046.625,636.1h114.2v16.659h-114.2V636.1Z" transform="translate(206.173 100.818)" fill="#527896" fill-rule="evenodd"/>
      <path id="Path_6739" data-name="Path 6739" d="M1058.94,636.1h11.7a2.284,2.284,0,0,1,2.274,2.277v12.108a2.282,2.282,0,0,1-2.274,2.274h-11.7a2.283,2.283,0,0,1-2.278-2.274V638.374a2.285,2.285,0,0,1,2.278-2.277Z" transform="translate(207.467 100.818)" fill="#344c60" fill-rule="evenodd"/>
      <path id="Path_6740" data-name="Path 6740" d="M1083,636.1h26.223a2.283,2.283,0,0,1,2.275,2.277v12.108a2.283,2.283,0,0,1-2.275,2.274H1083a2.28,2.28,0,0,1-2.273-2.274V638.374A2.282,2.282,0,0,1,1083,636.1Z" transform="translate(210.569 100.818)" fill="#344c60" fill-rule="evenodd"/>
      <path id="Path_6741" data-name="Path 6741" d="M1116.532,636.1h26.219a2.281,2.281,0,0,1,2.272,2.277v12.108a2.279,2.279,0,0,1-2.272,2.272h-26.219a2.279,2.279,0,0,1-2.275-2.272V638.374a2.282,2.282,0,0,1,2.275-2.277Z" transform="translate(214.89 100.818)" fill="#344c60" fill-rule="evenodd"/>
      <path id="Path_6742" data-name="Path 6742" d="M1161.947,682.119h-35.862a5.153,5.153,0,0,0-5.151-5.154h-34.692a5.156,5.156,0,0,0-5.154,5.154H1037.93a9.845,9.845,0,0,0,9.816-9.813v-3.152h114.2v12.965Z" transform="translate(205.053 105.078)" fill="#da7474" fill-rule="evenodd"/>
      <path id="Path_6743" data-name="Path 6743" d="M1046.625,630.078h114.2v3.014h-114.2v-3.014Z" transform="translate(206.173 100.042)" fill="#da7474" fill-rule="evenodd"/>
      <path id="Path_6744" data-name="Path 6744" d="M1161.947,681.673h-35.862a5.153,5.153,0,0,0-5.151-5.154h-34.692a5.156,5.156,0,0,0-5.154,5.154H1037.93a9.846,9.846,0,0,0,9.785-9.058h114.232v9.058Z" transform="translate(205.053 105.524)" fill="#853c3c" fill-rule="evenodd"/>
      <path id="Path_6745" data-name="Path 6745" d="M1081.814,676.127a8.674,8.674,0,1,1-15.695,5.094h11.335a5.155,5.155,0,0,1,4.36-5.094Z" transform="translate(208.686 105.977)" fill="#353635" fill-rule="evenodd"/>
      <path id="Path_6746" data-name="Path 6746" d="M1112.5,676.073a8.672,8.672,0,1,1-13.953,0Z" transform="translate(212.647 105.97)" fill="#353635" fill-rule="evenodd"/>
      <path id="Path_6747" data-name="Path 6747" d="M1111.2,678.483h-33.852a5.109,5.109,0,0,0-.611,2.434h-5.1v2.436H1111.2v-4.87Z" transform="translate(209.398 106.281)" fill="#484848" fill-rule="evenodd"/>
      <path id="Path_6748" data-name="Path 6748" d="M1099.794,685.562a8.672,8.672,0,0,1-15.023,0h-.25a8.685,8.685,0,0,0,.815-1.9h18.036l.029.091.009.032v0l.01.033.012.028.038.125.011.028v0l.01.028.009.03.012.032.009.028.01.035.011.027.013.03.013.032.021.061.011.029.011.032.011.031.012.03.016.03.034.089.011.028.014.031.011.03.016.028.024.06.015.033.025.056.012.029.043.087.016.03.011.029.012.027.017.029.045.087.012.028,0,.008.011.021.015.03.058.107.017.034.017.029.061.109.017.029.018.026Zm-30.295,0h-4.4a8.672,8.672,0,0,1-16.184-4.335h19.418a8.606,8.606,0,0,0,1.163,4.335Zm15.188-8.37-.012-.024-.075-.139,0-.006c-.135-.245-.287-.483-.443-.715l-.02-.027-.085-.123-.012-.014-.007-.012a5.391,5.391,0,0,1,.795-.061h19.9l-.054.073-.012.014-.085.123-.019.027c-.156.231-.307.47-.444.715l0,.006-.073.139-.015.024a8.894,8.894,0,0,0-.648,1.6h-18.036a8.672,8.672,0,0,0-.649-1.6Z" transform="translate(206.469 105.97)" fill="#1f1f1f" fill-rule="evenodd"/>
      <path id="Path_6749" data-name="Path 6749" d="M84.306,707.633v66.046H71.655V720.456H38.077v53.223H25.423V707.633Z" transform="translate(74.552 110.038)" fill="#cbcbcb" fill-rule="evenodd"/>
      <path id="Path_6750" data-name="Path 6750" d="M43,772.214V718.992H36.632v53.222Z" transform="translate(75.997 111.502)" fill="#656666" fill-rule="evenodd"/>
      <path id="Path_6751" data-name="Path 6751" d="M77.583,711.006h6.376v62.237H77.583V711.006Z" transform="translate(81.275 110.473)" fill="#fff" fill-rule="evenodd"/>
      <path id="Path_6752" data-name="Path 6752" d="M77.583,711.441h6.376v-3.808H77.583v3.808Z" transform="translate(81.275 110.038)" fill="#656666" fill-rule="evenodd"/>
      <path id="Path_6753" data-name="Path 6753" d="M84.306,707.633v3.808l-12.65,25.691V720.456H38.077v53.223H25.423V707.633Z" transform="translate(74.552 110.038)" fill="#909090" fill-rule="evenodd"/>
      <path id="Path_6754" data-name="Path 6754" d="M-77.737,707.633v66.046H-90.386V720.456h-33.578v53.223h-12.655V707.633Z" transform="translate(53.667 110.038)" fill="#cbcbcb" fill-rule="evenodd"/>
      <path id="Path_6755" data-name="Path 6755" d="M-119.039,772.214V718.992h-6.371v53.222Z" transform="translate(55.112 111.502)" fill="#656666" fill-rule="evenodd"/>
      <path id="Path_6756" data-name="Path 6756" d="M-84.46,711.006h6.374v62.237H-84.46V711.006Z" transform="translate(60.389 110.473)" fill="#fff" fill-rule="evenodd"/>
      <path id="Path_6757" data-name="Path 6757" d="M-84.46,711.441h6.374v-3.808H-84.46v3.808Z" transform="translate(60.389 110.038)" fill="#656666" fill-rule="evenodd"/>
      <path id="Path_6758" data-name="Path 6758" d="M-77.737,707.633v3.808l-12.649,25.691V720.456h-33.578v53.223h-12.655V707.633Z" transform="translate(53.667 110.038)" fill="#909090" fill-rule="evenodd"/>
      <path id="Path_6759" data-name="Path 6759" d="M-239.777,707.633v66.046H-252.43V720.456h-33.578v53.223h-12.655V707.633Z" transform="translate(32.781 110.038)" fill="#cbcbcb" fill-rule="evenodd"/>
      <path id="Path_6760" data-name="Path 6760" d="M-281.079,772.214V718.992h-6.373v53.222Z" transform="translate(34.226 111.502)" fill="#656666" fill-rule="evenodd"/>
      <path id="Path_6761" data-name="Path 6761" d="M-246.5,711.006h6.374v62.237H-246.5V711.006Z" transform="translate(39.504 110.473)" fill="#fff" fill-rule="evenodd"/>
      <path id="Path_6762" data-name="Path 6762" d="M-246.5,711.441h6.374v-3.808H-246.5v3.808Z" transform="translate(39.504 110.038)" fill="#656666" fill-rule="evenodd"/>
      <path id="Path_6763" data-name="Path 6763" d="M-239.777,707.633v3.808l-12.653,25.691V720.456h-33.578v53.223h-12.655V707.633Z" transform="translate(32.781 110.038)" fill="#909090" fill-rule="evenodd"/>
      <path id="Path_6764" data-name="Path 6764" d="M-401.822,707.633v66.046h-12.651V720.456h-33.578v53.223H-460.7V707.633Z" transform="translate(11.896 110.038)" fill="#cbcbcb" fill-rule="evenodd"/>
      <path id="Path_6765" data-name="Path 6765" d="M-443.122,772.214V718.992H-449.5v53.222Z" transform="translate(13.341 111.502)" fill="#656666" fill-rule="evenodd"/>
      <path id="Path_6766" data-name="Path 6766" d="M-408.544,711.006h6.376v62.237h-6.376V711.006Z" transform="translate(18.619 110.473)" fill="#fff" fill-rule="evenodd"/>
      <path id="Path_6767" data-name="Path 6767" d="M-408.544,711.441h6.376v-3.808h-6.376v3.808Z" transform="translate(18.619 110.038)" fill="#656666" fill-rule="evenodd"/>
      <path id="Path_6768" data-name="Path 6768" d="M-401.822,707.633v3.808l-12.651,25.691V720.456h-33.578v53.223H-460.7V707.633Z" transform="translate(11.896 110.038)" fill="#909090" fill-rule="evenodd"/>
      <path id="Path_6769" data-name="Path 6769" d="M1367,688.322H-553v3.48H1367v-3.48Z" transform="translate(0 107.549)" fill="#656666" fill-rule="evenodd"/>
      <path id="Path_6770" data-name="Path 6770" d="M-553,691.405H1367v18.319H-553V691.405Z" transform="translate(0 107.946)" fill="#f7f7f7" fill-rule="evenodd"/>
      <path id="Path_6771" data-name="Path 6771" d="M246.347,707.633v66.046H233.7V720.456H200.12v53.223H187.469V707.633Z" transform="translate(95.438 110.038)" fill="#cbcbcb" fill-rule="evenodd"/>
      <path id="Path_6772" data-name="Path 6772" d="M205.046,772.214V718.992h-6.37v53.222Z" transform="translate(96.882 111.502)" fill="#656666" fill-rule="evenodd"/>
      <path id="Path_6773" data-name="Path 6773" d="M239.625,711.006H246v62.237h-6.377V711.006Z" transform="translate(102.16 110.473)" fill="#fff" fill-rule="evenodd"/>
      <path id="Path_6774" data-name="Path 6774" d="M239.625,711.441H246v-3.808h-6.377v3.808Z" transform="translate(102.16 110.038)" fill="#656666" fill-rule="evenodd"/>
      <path id="Path_6775" data-name="Path 6775" d="M246.347,707.633v3.808L233.7,737.132V720.456H200.12v53.223H187.469V707.633Z" transform="translate(95.438 110.038)" fill="#909090" fill-rule="evenodd"/>
      <path id="Path_6776" data-name="Path 6776" d="M894.522,707.633v66.046H881.868V720.456H848.29v53.223H835.639V707.633Z" transform="translate(178.98 110.038)" fill="#cbcbcb" fill-rule="evenodd"/>
      <path id="Path_6777" data-name="Path 6777" d="M853.219,772.214V718.992h-6.373v53.222Z" transform="translate(180.424 111.502)" fill="#656666" fill-rule="evenodd"/>
      <path id="Path_6778" data-name="Path 6778" d="M887.8,711.006h6.374v62.237H887.8V711.006Z" transform="translate(185.702 110.473)" fill="#fff" fill-rule="evenodd"/>
      <path id="Path_6779" data-name="Path 6779" d="M887.8,711.441h6.374v-3.808H887.8v3.808Z" transform="translate(185.702 110.038)" fill="#656666" fill-rule="evenodd"/>
      <path id="Path_6780" data-name="Path 6780" d="M894.522,707.633v3.808l-12.654,25.691V720.456H848.29v53.223H835.639V707.633Z" transform="translate(178.98 110.038)" fill="#909090" fill-rule="evenodd"/>
      <path id="Path_6781" data-name="Path 6781" d="M732.478,707.633v66.046h-12.65V720.456H686.25v53.223H673.6V707.633Z" transform="translate(158.094 110.038)" fill="#cbcbcb" fill-rule="evenodd"/>
      <path id="Path_6782" data-name="Path 6782" d="M691.176,772.214V718.992H684.8v53.222Z" transform="translate(159.539 111.502)" fill="#656666" fill-rule="evenodd"/>
      <path id="Path_6783" data-name="Path 6783" d="M725.755,711.006h6.373v62.237h-6.373V711.006Z" transform="translate(164.817 110.473)" fill="#fff" fill-rule="evenodd"/>
      <path id="Path_6784" data-name="Path 6784" d="M725.755,711.441h6.373v-3.808h-6.373v3.808Z" transform="translate(164.817 110.038)" fill="#656666" fill-rule="evenodd"/>
      <path id="Path_6785" data-name="Path 6785" d="M732.478,707.633v3.808l-12.65,25.691V720.456H686.25v53.223H673.6V707.633Z" transform="translate(158.094 110.038)" fill="#909090" fill-rule="evenodd"/>
      <path id="Path_6786" data-name="Path 6786" d="M570.438,707.633v66.046H557.786V720.456h-33.58v53.223H511.553V707.633Z" transform="translate(137.209 110.038)" fill="#cbcbcb" fill-rule="evenodd"/>
      <path id="Path_6787" data-name="Path 6787" d="M529.134,772.214V718.992h-6.373v53.222Z" transform="translate(138.653 111.502)" fill="#656666" fill-rule="evenodd"/>
      <path id="Path_6788" data-name="Path 6788" d="M563.715,711.006h6.376v62.237h-6.376V711.006Z" transform="translate(143.932 110.473)" fill="#fff" fill-rule="evenodd"/>
      <path id="Path_6789" data-name="Path 6789" d="M563.715,711.441h6.376v-3.808h-6.376v3.808Z" transform="translate(143.932 110.038)" fill="#656666" fill-rule="evenodd"/>
      <path id="Path_6790" data-name="Path 6790" d="M570.438,707.633v3.808l-12.653,25.691V720.456h-33.58v53.223H511.553V707.633Z" transform="translate(137.209 110.038)" fill="#909090" fill-rule="evenodd"/>
      <path id="Path_6791" data-name="Path 6791" d="M408.392,707.633v66.046H395.743V720.456h-33.58v53.223h-12.65V707.633Z" transform="translate(116.324 110.038)" fill="#cbcbcb" fill-rule="evenodd"/>
      <path id="Path_6792" data-name="Path 6792" d="M367.092,772.214V718.992h-6.373v53.222Z" transform="translate(117.768 111.502)" fill="#656666" fill-rule="evenodd"/>
      <path id="Path_6793" data-name="Path 6793" d="M401.67,711.006h6.375v62.237H401.67V711.006Z" transform="translate(123.046 110.473)" fill="#fff" fill-rule="evenodd"/>
      <path id="Path_6794" data-name="Path 6794" d="M401.67,711.441h6.375v-3.808H401.67v3.808Z" transform="translate(123.046 110.038)" fill="#656666" fill-rule="evenodd"/>
      <path id="Path_6795" data-name="Path 6795" d="M408.392,707.633v3.808l-12.649,25.691V720.456h-33.58v53.223h-12.65V707.633Z" transform="translate(116.324 110.038)" fill="#909090" fill-rule="evenodd"/>
      <path id="Path_6796" data-name="Path 6796" d="M1056.561,707.633v66.046H1043.91V720.456h-33.575v53.223H997.682V707.633Z" transform="translate(199.865 110.038)" fill="#cbcbcb" fill-rule="evenodd"/>
      <path id="Path_6797" data-name="Path 6797" d="M1015.262,772.214V718.992h-6.372v53.222Z" transform="translate(201.31 111.502)" fill="#656666" fill-rule="evenodd"/>
      <path id="Path_6798" data-name="Path 6798" d="M1049.839,711.006h6.376v62.237h-6.376V711.006Z" transform="translate(206.588 110.473)" fill="#fff" fill-rule="evenodd"/>
      <path id="Path_6799" data-name="Path 6799" d="M1049.839,711.441h6.376v-3.808h-6.376v3.808Z" transform="translate(206.588 110.038)" fill="#656666" fill-rule="evenodd"/>
      <path id="Path_6800" data-name="Path 6800" d="M1056.561,707.633v3.808l-12.651,25.691V720.456h-33.575v53.223H997.682V707.633Z" transform="translate(199.865 110.038)" fill="#909090" fill-rule="evenodd"/>
      <path id="Path_6801" data-name="Path 6801" d="M166.687,519.456h42.19l-.042,13.228H166.687V519.456Z" transform="translate(92.759 85.784)" fill="#91bcbe" fill-rule="evenodd"/>
      <path id="Path_6802" data-name="Path 6802" d="M205.161,519.456h15.38l-.015,13.228H205.161V519.456Z" transform="translate(97.718 85.784)" fill="#82a8aa" fill-rule="evenodd"/>
      <path id="Path_6803" data-name="Path 6803" d="M205.161,492.724h15.38l-.015,13.228H205.161V492.724Z" transform="translate(97.718 82.338)" fill="#91bcbe" fill-rule="evenodd"/>
      <path id="Path_6804" data-name="Path 6804" d="M190.437,452.629h15.379l-.015,13.228H190.437V452.629Z" transform="translate(95.82 77.171)" fill="#8ab2b4" fill-rule="evenodd"/>
      <path id="Path_6805" data-name="Path 6805" d="M141.013,519.456h26.893l-.027,13.228H141.013V519.456Z" transform="translate(89.45 85.784)" fill="#8ab2b4" fill-rule="evenodd"/>
      <path id="Path_6806" data-name="Path 6806" d="M173.584,318.975h29.055l-.029,13.228H173.584V318.975Z" transform="translate(93.648 59.944)" fill="#9fced0" fill-rule="evenodd"/>
      <path id="Path_6807" data-name="Path 6807" d="M158.011,318.975h15.38l-.015,13.228H158.011V318.975Z" transform="translate(91.641 59.944)" fill="#9fced0" fill-rule="evenodd"/>
      <path id="Path_6808" data-name="Path 6808" d="M173.584,292.242h15.38l-.015,13.228H173.584V292.242Z" transform="translate(93.648 56.499)" fill="#9fced0" fill-rule="evenodd"/>
      <path id="Path_6809" data-name="Path 6809" d="M217.09,276.246V157.858l2.373-.234V274.615l-2.373,1.631Z" transform="translate(99.256 -41.128)" fill="#8ab7b4" fill-rule="evenodd"/>
      <path id="Path_6810" data-name="Path 6810" d="M224.258,192.289v-20l2.373-.058v19.529l-2.373.527Z" transform="translate(100.18 41.031)" fill="#8ab7b4" fill-rule="evenodd"/>
      <path id="Path_6811" data-name="Path 6811" d="M25.609,159.76V140.445h-4.9v18.193l-1.883-.43V140.445H17.085v-5.037l1.738,0V104.26l1.883-.077v31.223l4.9,0V109.848l1.883-.077V135.4l1.656,0v5.043H27.493V160.19l-1.883-.43Z" transform="translate(73.477 32.26)" fill="#75999a" fill-rule="evenodd"/>
      <path id="Path_6812" data-name="Path 6812" d="M477,399.166h26.9l-.027,13.228H477V399.166Z" transform="translate(132.756 70.28)" fill="#8ab2b4" fill-rule="evenodd"/>
      <path id="Path_6813" data-name="Path 6813" d="M461.43,425.9h15.38l-.016,13.228H461.43V425.9Z" transform="translate(130.748 73.725)" fill="#82a8aa" fill-rule="evenodd"/>
      <path id="Path_6814" data-name="Path 6814" d="M461.43,399.167h15.38l-.016,13.228H461.43V399.167Z" transform="translate(130.748 70.28)" fill="#91bcbe" fill-rule="evenodd"/>
      <path id="Path_6815" data-name="Path 6815" d="M497.638,225.417h15.38L513,238.646H497.638V225.417Z" transform="translate(135.415 47.886)" fill="#8ab2b4" fill-rule="evenodd"/>
    </g>
    <g id="Group_1514" data-name="Group 1514" transform="translate(832.548 292.248)">
      <path id="Path_6817" data-name="Path 6817" d="M30.858,41.418l-2.989-2.992a25.084,25.084,0,0,0,0-35.437L30.858,0A29.317,29.317,0,0,1,30.858,41.418Z" transform="translate(33.145)" fill="#86b9b6"/>
      <path id="Path_6818" data-name="Path 6818" d="M25.628,30.32l2.989,3a22,22,0,0,0,0-31.079L25.628,5.226A17.766,17.766,0,0,1,25.628,30.32Z" transform="translate(30.211 2.935)" fill="#86b9b6"/>
      <path id="Path_6819" data-name="Path 6819" d="M26.312,24.949a14.44,14.44,0,0,0,0-20.405L23.32,7.533a10.2,10.2,0,0,1,0,14.424Z" transform="translate(27.184 5.961)" fill="#86b9b6"/>
      <path id="Path_6820" data-name="Path 6820" d="M14.158,2.989,11.164,0a29.321,29.321,0,0,0,0,41.418l2.989-2.992A25.084,25.084,0,0,1,14.158,2.989Z" transform="translate(0)" fill="#86b9b6"/>
      <path id="Path_6821" data-name="Path 6821" d="M12.187,33.318l2.992-3a17.766,17.766,0,0,1,0-25.094L12.187,2.236A22,22,0,0,0,12.187,33.318Z" transform="translate(4.146 2.933)" fill="#86b9b6"/>
      <path id="Path_6822" data-name="Path 6822" d="M13.242,24.949l2.992-2.992a10.209,10.209,0,0,1,0-14.424L13.244,4.544A14.444,14.444,0,0,0,13.242,24.949Z" transform="translate(8.427 5.961)" fill="#86b9b6"/>
    </g>
    <path id="Path_6823" data-name="Path 6823" d="M456,220.667H126.119L196,207.574s5.451-47.305,41.267-48.78,38.33,38.4,38.33,38.4,24.461-10.359,42.4,0,33.587,6.453,33.587,6.453,5.74-26.947,24.262-28.487,22.127,24.137,24.546,28.487S456,220.667,456,220.667Z" transform="translate(1294 136)" fill="#91c3c3"/>
    <path id="Path_6824" data-name="Path 6824" d="M126.119,194.436H316.239l-40.274-7.545s-3.142-27.263-23.783-28.113-22.091,22.131-22.091,22.131-14.1-5.97-24.438,0-19.357,3.719-19.357,3.719-3.308-15.53-13.983-16.418-12.752,13.911-14.146,16.418S126.119,194.436,126.119,194.436Z" transform="translate(289.881 59.115)" fill="#91c3c3"/>
  </g>
</svg>
