<svg xmlns="http://www.w3.org/2000/svg" viewBox="0 0 746.12 220.78"><defs><style>.cls-1{fill:#3d3d3d;}.cls-2{fill:#f52927;}.cls-3{fill:#fff;}</style></defs><title>Asset 3</title><g id="Layer_2" data-name="Layer 2"><g id="Trace"><path class="cls-1" d="M334.82,92.31q-5.51,0-6.87-5.33l-3.26-13H295l-3.25,13q-1.37,5.33-6.87,5.33H275.2q-3.31,0-4.71-1.87c-.93-1.24-1.09-3-.5-5.12l14.68-50.91q3.49-12.43,9.12-17.23t16-4.8q10.43,0,16.08,4.8t9,17.23l14.68,50.91q.88,3.2-.5,5.09t-4.71,1.9Zm-35.7-34.93h21.37L315,35.65a11.47,11.47,0,0,0-2-4.5,4.08,4.08,0,0,0-3.2-1.24,4.2,4.2,0,0,0-3.25,1.21,11.34,11.34,0,0,0-2,4.53Z"/><path class="cls-1" d="M362.05,13.62A6.37,6.37,0,0,1,363.62,9a6.18,6.18,0,0,1,4.59-1.59h9.24A6.14,6.14,0,0,1,382,9a6.32,6.32,0,0,1,1.57,4.62V86.15a5.51,5.51,0,0,1-6.15,6.16h-9.24a5.51,5.51,0,0,1-6.16-6.16Z"/><path class="cls-1" d="M439.55,42.22a6.18,6.18,0,0,1-1.63,4.62,6.27,6.27,0,0,1-4.58,1.6h-14v21c0,2.6.68,4.48,2.05,5.62s3.56,1.72,6.6,1.72a28.48,28.48,0,0,0,3.34-.24,27,27,0,0,1,2.76-.24q5.38,0,5.44,4.74V85.2c0,3.71-1.68,6-5,6.7A58.06,58.06,0,0,1,423,93.46,34.08,34.08,0,0,1,413,92.31a21.69,21.69,0,0,1-8.08-4,18.35,18.35,0,0,1-5.3-7.49,29.6,29.6,0,0,1-2-11.33V24.87a6.26,6.26,0,0,1,1.57-4.59,6.35,6.35,0,0,1,4.65-1.57h9.24a6.39,6.39,0,0,1,4.59,1.57,6.12,6.12,0,0,1,1.62,4.59v7.46h14a5.67,5.67,0,0,1,6.21,6.22Z"/><path class="cls-1" d="M480.23,93.37q-15.69,0-23.89-8.05t-8.2-23q0-15,8.2-23t23.89-8q15.63,0,23.86,8.05t8.23,23q0,14.92-8.23,23T480.23,93.37Zm-8-20.07c1.72,2.25,4.37,3.38,8,3.38s6.25-1.13,8-3.38,2.6-5.9,2.6-10.95-.87-8.76-2.6-11-4.4-3.38-8-3.38-6.25,1.13-8,3.38-2.57,5.92-2.57,11S470.55,71.05,472.26,73.3Z"/><path class="cls-1" d="M556.78,31.8a6.8,6.8,0,0,1,4.91,1.51,5.89,5.89,0,0,1,1.72,4.59v5.44q0,6-6.81,6.22a39.15,39.15,0,0,0-7.49.68c-1.52.38-2.46.87-2.81,1.48a6.89,6.89,0,0,0-.53,3.23v31.2a6.1,6.1,0,0,1-1.63,4.59,6.34,6.34,0,0,1-4.59,1.57h-9.24a6.32,6.32,0,0,1-4.62-1.57,6.17,6.17,0,0,1-1.59-4.59V51.63a38.94,38.94,0,0,1,.5-6.86,13.81,13.81,0,0,1,1.95-5.07,11.39,11.39,0,0,1,3.67-3.64,22.6,22.6,0,0,1,6-2.34,53.46,53.46,0,0,1,8.65-1.39Q549.73,31.93,556.78,31.8Z"/><path class="cls-1" d="M614.44,38.55A6.31,6.31,0,0,1,616,34a6.22,6.22,0,0,1,4.62-1.63h8.76a5.67,5.67,0,0,1,6.22,6.22v26.7a40.34,40.34,0,0,1-2,13.62,18.61,18.61,0,0,1-6.13,8.7A25.29,25.29,0,0,1,617.82,92a58.43,58.43,0,0,1-13.44,1.33A58,58,0,0,1,591,92a25.57,25.57,0,0,1-9.68-4.47,18.38,18.38,0,0,1-6.16-8.7,40.34,40.34,0,0,1-2-13.62V38.55A6.34,6.34,0,0,1,574.69,34a6.16,6.16,0,0,1,4.64-1.63h8.83A6.08,6.08,0,0,1,592.74,34a6.34,6.34,0,0,1,1.57,4.59V65.73q0,6.21,2.28,8.58t7.82,2.37q5.54,0,7.78-2.34t2.25-8.61Z"/><path class="cls-1" d="M718.05,31.27a42.07,42.07,0,0,1,11.58,1.42,23.38,23.38,0,0,1,8.73,4.59,19.64,19.64,0,0,1,5.77,8.64,38.59,38.59,0,0,1,2,13.17V86.15a6.13,6.13,0,0,1-1.6,4.59,6.32,6.32,0,0,1-4.62,1.57h-8.23a5.51,5.51,0,0,1-6.16-6.16v-28c0-3.56-.74-6.14-2.22-7.76s-3.82-2.43-7-2.43-5.41.8-6.75,2.4-2,4.2-2,7.79v28a5.51,5.51,0,0,1-6.16,6.16h-8.11a6.29,6.29,0,0,1-4.62-1.57,6.13,6.13,0,0,1-1.6-4.59v-28q0-5.38-2-7.79T678.33,48q-4.86,0-7.05,2.43c-1.46,1.62-2.19,4.2-2.19,7.76v28a5.51,5.51,0,0,1-6.16,6.16H654.7a6.32,6.32,0,0,1-4.62-1.57,6.17,6.17,0,0,1-1.6-4.59V59.09a38.84,38.84,0,0,1,2-13.17,19.64,19.64,0,0,1,5.77-8.64A23.43,23.43,0,0,1,665,32.69a42.15,42.15,0,0,1,11.55-1.42q14.87,0,20.72,7.4Q703.08,31.26,718.05,31.27Z"/><path class="cls-1" d="M292.66,212.31q-9.95,0-14.56-4t-4.62-13.67v-55a5.51,5.51,0,0,1,6.16-6.16h9.12a5.5,5.5,0,0,1,6.15,6.16v49.8a4.28,4.28,0,0,0,1,3.1c.67.69,2,1,4,1h24.39a6.15,6.15,0,0,1,4.59,1.6,6.25,6.25,0,0,1,1.57,4.56v6.39a5.51,5.51,0,0,1-6.16,6.16Z"/><path class="cls-1" d="M400.06,175.42c0,4.27-1,7.36-3.13,9.3s-5.75,3.18-11,3.73l-24.33,2.49a9.42,9.42,0,0,0,4.94,5.5,22.3,22.3,0,0,0,9.09,1.54,65,65,0,0,0,13.44-1.72,6.07,6.07,0,0,1,5.06.66q1.88,1.35,1.87,4.67v2.25q0,5.57-5.27,6.87a80.11,80.11,0,0,1-19.6,2.66q-14.81,0-23.33-7.78t-8.52-23.24q0-15,8.14-23t24.07-8q13.67,0,21.1,6T400.06,175.42Zm-22.67.77a4.65,4.65,0,0,0,2.6-.77,2.58,2.58,0,0,0,.65-2c0-2.76-.74-4.82-2.22-6.16s-3.78-2-6.89-2c-3.48,0-6.08.95-7.82,2.84s-2.78,5.13-3.14,9.71Z"/><path class="cls-1" d="M444.11,151.8a6.8,6.8,0,0,1,4.91,1.51,5.89,5.89,0,0,1,1.72,4.59v5.44q0,6-6.81,6.22a39.15,39.15,0,0,0-7.49.68c-1.52.38-2.45.87-2.81,1.48a7,7,0,0,0-.53,3.23v31.2a6.07,6.07,0,0,1-1.63,4.59,6.33,6.33,0,0,1-4.59,1.57h-9.23a6.29,6.29,0,0,1-4.62-1.57,6.13,6.13,0,0,1-1.6-4.59V171.63a39.93,39.93,0,0,1,.5-6.86,14,14,0,0,1,2-5.07,11.29,11.29,0,0,1,3.67-3.64,22.46,22.46,0,0,1,6-2.34,53.14,53.14,0,0,1,8.64-1.39Q437.07,151.93,444.11,151.8Z"/><path class="cls-1" d="M518.77,175.42c0,4.27-1,7.36-3.14,9.3s-5.74,3.18-10.95,3.73l-24.34,2.49a9.46,9.46,0,0,0,5,5.5,22.3,22.3,0,0,0,9.09,1.54,65,65,0,0,0,13.44-1.72,6.07,6.07,0,0,1,5.06.66q1.86,1.35,1.86,4.67v2.25q0,5.57-5.27,6.87a80,80,0,0,1-19.59,2.66q-14.81,0-23.33-7.78T458,182.35q0-15,8.14-23t24.07-8q13.68,0,21.11,6T518.77,175.42Zm-22.68.77a4.69,4.69,0,0,0,2.61-.77,2.62,2.62,0,0,0,.65-2c0-2.76-.74-4.82-2.22-6.16s-3.78-2-6.9-2c-3.47,0-6.08.95-7.81,2.84s-2.79,5.13-3.14,9.71Z"/><path class="cls-1" d="M561.4,151.27a58.52,58.52,0,0,1,13.41,1.33,25.66,25.66,0,0,1,9.71,4.47,18.52,18.52,0,0,1,6.12,8.7,40.08,40.08,0,0,1,2,13.62v26.76a6.17,6.17,0,0,1-1.6,4.59,6.32,6.32,0,0,1-4.62,1.57h-8.76a6.31,6.31,0,0,1-4.62-1.57,6.13,6.13,0,0,1-1.6-4.59V178.92q0-6.22-2.25-8.59T561.43,168c-3.7,0-6.3.78-7.82,2.34s-2.28,4.43-2.28,8.62v27.23a5.51,5.51,0,0,1-6.16,6.16h-8.82a6.32,6.32,0,0,1-4.62-1.57,6.17,6.17,0,0,1-1.6-4.59V179.39a40.32,40.32,0,0,1,2-13.62,18.38,18.38,0,0,1,6.16-8.7A25.81,25.81,0,0,1,548,152.6,58,58,0,0,1,561.4,151.27Z"/><path class="cls-1" d="M614.68,208.1A14.61,14.61,0,1,1,625,212.34,14,14,0,0,1,614.68,208.1Zm-1.24-10.28A11.54,11.54,0,0,0,625,209.3a11.14,11.14,0,0,0,8.14-3.36,11,11,0,0,0,3.38-8.12A11.57,11.57,0,0,0,625,186.26a11.57,11.57,0,0,0-11.52,11.56Zm12.68,6.2-1.36-3.72h-1.32v3.6a1.56,1.56,0,0,1-1.92,1.92H621a1.56,1.56,0,0,1-1.92-1.92v-9.28a4.12,4.12,0,0,1,4.8-4.8h1.88a6.27,6.27,0,0,1,4.36,1.38,4.92,4.92,0,0,1,1.52,3.82,5,5,0,0,1-2.72,4.84l1.88,4.2c.32.7.4,1.16.26,1.4s-.61.36-1.38.36h-1a2.91,2.91,0,0,1-1.64-.36A3.14,3.14,0,0,1,626.12,204Zm-.48-10.36h-1a1.06,1.06,0,0,0-1.2,1.2v1.8h2.2a1.76,1.76,0,0,0,1.2-.32,1.5,1.5,0,0,0,.36-1.16,1.6,1.6,0,0,0-.36-1.16A1.66,1.66,0,0,0,625.64,193.66Z"/><rect class="cls-2" width="221.89" height="220.78" rx="47.17" ry="47.17"/><path class="cls-3" d="M148.81,158.39H110.89a36,36,0,0,1-32.23-51.95l18-36.36a36.72,36.72,0,0,1,38.64-20.15A2.42,2.42,0,0,0,137,45.47c-23-14-55.83-7.28-69.41,20.11L43.69,113.67C28,145.3,51,182.4,86.31,182.4h50.16a47.56,47.56,0,0,0,46.7-38.28,2.43,2.43,0,0,0-4.39-1.84A35.61,35.61,0,0,1,148.81,158.39Z"/><path class="cls-3" d="M110.64,81.66,98.35,106.45a24.52,24.52,0,0,0,22,35.42h25.84a24.52,24.52,0,0,0,22-35.42L155.84,81.66C146.57,63,119.91,63,110.64,81.66Z"/></g></g></svg>